<svg id="icon-10-affordability-colored-rshs" xmlns="http://www.w3.org/2000/svg" viewBox="0 0 35.35 49.99"><defs><style>.fill-empty{fill:none}.rshs-colored-opacity20{fill:#2a8d82;opacity:.2}</style></defs><title>icon-10-affordability-colored-rshs</title><g id="Layer_2" data-name="Layer 2"><g id="Layer_1-2" data-name="Layer 1"><g id="icon-affordability-colored"><circle class="fill-empty" cx="17.68" cy="4.21" r="1.8"/><path class="rshs-colored-opacity20" d="M27.32 7.2v-3h-5.44a4.21 4.21 0 1 0-8.41 0H8v3H0V50h35.35V7.2zm-9.64-4.79a1.8 1.8 0 1 1-1.8 1.8 1.8 1.8 0 0 1 1.8-1.8zM5.41 21.69h.46L8.19 24H5.41a1.16 1.16 0 0 1 0-2.32zm0 6.18h6.64l2.32 2.32h-9a1.16 1.16 0 1 1 0-2.32zm0 8.5a1.16 1.16 0 1 1 0-2.32h12.82l2.32 2.32zm22.51 5.18L4.67 18.31l2.73-2.74 23.25 23.25zm2.61-5.18h-.14l-2.32-2.32h2.46a1.16 1.16 0 0 1 0 2.32zm0-6.18H24.2l-2.32-2.32h8.64a1.16 1.16 0 0 1 0 2.32zm0-6.18H18l-2.3-2.32h14.82a1.16 1.16 0 0 1 0 2.32z"/><path class="rshs-colored-opacity20" d="M27.32 7.2v-3h-5.44a4.21 4.21 0 0 0-8.41 0H8v3H0v15l5.7 5.7h6.35l2.32 2.32H8l3.86 3.86h6.35l2.32 2.32H14.2L27.82 50h7.54V7.2zm-9.64-4.79a1.8 1.8 0 1 1-1.8 1.8 1.8 1.8 0 0 1 1.8-1.8zM5.41 24a1.16 1.16 0 0 1 0-2.32h.46L8.19 24zm22.51 17.55L4.67 18.31l2.73-2.74 23.25 23.25zm2.61-5.18h-.14l-2.32-2.32h2.46a1.16 1.16 0 0 1 0 2.32zm0-6.18H24.2l-2.32-2.32h8.64a1.16 1.16 0 0 1 0 2.32zm0-6.18H18l-2.3-2.32h14.82a1.16 1.16 0 0 1 0 2.32z"/><path class="rshs-colored-opacity20" d="M31.62 22.49a1.15 1.15 0 0 1 .06.36A1.16 1.16 0 0 1 30.52 24h-.42l-3.86 3.86h4.28a1.16 1.16 0 0 1 0 2.32H24.2l-.14-.18L23 31.14l7.68 7.68-2.73 2.73-7.68-7.68L19.15 35l1.41 1.41h-2.82L4.12 50h31.23V18.76zm-1.1 13.88h-.14l-2.32-2.32h2.46a1.16 1.16 0 0 1 0 2.32z"/></g></g></g></svg>