<svg id="icon-13-24hr-support-colored-rshs" xmlns="http://www.w3.org/2000/svg" viewBox="0 0 58.83 55"><defs><style>.rshs-colored-opacity20{fill:#2a8d82;opacity:.2}.rshs-colored-opacity40{fill:#2a8d82;opacity:.4}.rshs-colored-opacity70{fill:#2a8d82;opacity:.7}.fill-white{fill:#fff}.rshs-colored-light{fill:#82bfb0}</style></defs><title>icon-13-24hr-support-colored-rshs</title><g id="Layer_2" data-name="Layer 2"><g id="Layer_1-2" data-name="Layer 1"><g id="icon-24hr-support-colored"><path class="rshs-colored-opacity20" d="M27.5 2a25.2 25.2 0 0 0-16.35 6L22 18.89a10.12 10.12 0 0 1 15.53 7.6l11.85-11.86A25.29 25.29 0 0 0 27.5 2z"/><path class="rshs-colored-opacity40" d="M37.58 27.42a9.71 9.71 0 0 1-.13 1.58c-.05.33 10.16 3.62 14.35 5.4a25.29 25.29 0 0 0-2.42-19.77L37.53 26.48c.03.31.05.62.05.94zm-35.39-.08a25.29 25.29 0 0 0 12.6 21.88l11.75-11.75c-4.33-.59-9.23-4.3-9.23-10.05A10.12 10.12 0 0 1 22 18.89L11.15 8a25.25 25.25 0 0 0-8.96 19.34z"/><path class="rshs-colored-opacity70" d="M27.5 52.65a25.19 25.19 0 0 0 14.16-4.33l-8.6-12.46a9.61 9.61 0 0 1-5.62 1.7 9 9 0 0 1-.91-.08L14.79 49.22a25.18 25.18 0 0 0 12.71 3.43z"/><path class="fill-white" d="M27.45 2.25v7.17m0 2.25a2.25 2.25 0 0 1-2.25-2.25V2.25a2.25 2.25 0 0 1 4.5 0v7.17a2.25 2.25 0 0 1-2.25 2.25zM9.05 27.34h-6.8M9 29.59H2.25a2.25 2.25 0 0 1 0-4.5H9a2.25 2.25 0 0 1 0 4.5zm18.45 15.13v8.03m0 2.25a2.25 2.25 0 0 1-2.25-2.25v-8a2.25 2.25 0 0 1 4.5 0v8A2.25 2.25 0 0 1 27.45 55z"/><path class="rshs-colored-light" d="M43.57 40.34a2.47 2.47 0 0 0 3.56 0l11.09-11.06s1.78-1.78-.73-1.78H33.21s-2.52 0-.74 1.78z"/></g></g></g></svg>