<svg id="icon-18-community-white-rshs" xmlns="http://www.w3.org/2000/svg" viewBox="0 0 54.1 42.06"><defs><style>.fill-white-opacity40{fill:#fff;opacity:.4}.fill-white-opacity70{fill:#fff;opacity:.7}.fill-white-opacity20{fill:#fff;opacity:.2}</style></defs><title>icon-18-community-white-rshs</title><g id="Layer_2" data-name="Layer 2"><g id="Layer_1-2" data-name="Layer 1"><g id="icon-community-white"><circle class="fill-white-opacity40" cx="48.71" cy="13.27" r="4.35" transform="rotate(-66.95 48.715 13.27)"/><circle class="fill-white-opacity40" cx="5.39" cy="13.27" r="4.35" transform="rotate(-23.05 5.388 13.282)"/><path class="fill-white-opacity40" d="M53.93 22c.48-1.12-.08-2.35-1.09-3.62a6.53 6.53 0 0 1-10.66-4.55 4.86 4.86 0 0 0-2.8 1 94.16 94.16 0 0 1-2.66 15.88l6.93 6.93A65.08 65.08 0 0 0 53.93 22z"/><path class="fill-white-opacity70" d="M36.72 30.67a49.81 49.81 0 0 1-2 6.21c.13 2.53.68 4.4 1.9 4.92 1.68.71 4.32-1.2 7.07-4.2z"/><path class="fill-white-opacity40" d="M11.92 13.82a6.53 6.53 0 0 1-10.66 4.54C.25 19.63-.3 20.86.17 22a65.06 65.06 0 0 0 10.31 15.62l7-7a94.15 94.15 0 0 1-2.66-15.85 4.79 4.79 0 0 0-2.9-.95z"/><path class="fill-white-opacity70" d="M17.53 41.8c1.23-.53 1.79-2.43 1.91-5a50.1 50.1 0 0 1-2-6.11l-7 7c2.78 2.92 5.41 4.82 7.09 4.11z"/><path class="fill-white-opacity20" d="M34 8.83a7.77 7.77 0 0 1-13.79 0 5.4 5.4 0 0 0-2.71 2.6L27.07 21l9.61-9.61A5.4 5.4 0 0 0 34 8.83z"/><path class="fill-white-opacity40" d="M34.54 28.49a75.4 75.4 0 0 0 2.3-16.21 2.53 2.53 0 0 0-.16-.86L27.07 21zM17.47 11.42a2.55 2.55 0 0 0-.16.86 75.4 75.4 0 0 0 2.3 16.21L27.07 21z"/><path class="fill-white-opacity70" d="M19.61 28.49c1.79 7.21 4.46 13.57 7.46 13.57s5.67-6.35 7.46-13.57L27.07 21z"/><circle class="fill-white-opacity20" cx="27.07" cy="5.18" r="5.18"/></g></g></g></svg>