<svg id="icon-16-building-career-white-rshs" xmlns="http://www.w3.org/2000/svg" viewBox="0 0 44.88 49.82"><defs><style>.fill-white{fill:#fff}.fill-white-opacity40{fill:#fff;opacity:.4}.fill-white-opacity70{fill:#fff;opacity:.7}.fill-white-opacity20{fill:#fff;opacity:.2}</style></defs><title>icon-16-building-career-white-rshs</title><g id="Layer_2" data-name="Layer 2"><g id="Layer_1-2" data-name="Layer 1"><g id="icon-building-career-white"><path class="fill-white-opacity40" d="M13.41 41.14v-12.8H0v21.48h4.73l8.68-8.68z"/><path class="fill-white-opacity70" d="M13.41 49.82v-8.68l-8.68 8.68h8.68z"/><path class="fill-white-opacity20" d="M29.01 25.54V13.1H15.6v4.62l10.61 10.62 2.8-2.8z"/><path class="fill-white-opacity40" d="M29.01 31.13v-5.59l-2.8 2.8 2.8 2.79zM15.6 17.72v21.23l10.61-10.61L15.6 17.72z"/><path class="fill-white-opacity70" d="M29.01 31.13l-2.8-2.79L15.6 38.95v10.87h13.41V31.13z"/><path class="fill-white-opacity20" d="M44.88 0H31.47v23.08L44.88 9.67V0z"/><path class="fill-white-opacity40" d="M44.88 9.67L31.47 23.08v10.51L44.88 47V9.67z"/><path class="fill-white-opacity70" d="M31.47 33.59v16.23h13.41V47L31.47 33.59z"/><path class="fill-white" d="M0 34.87h35.29v9.86H0z"/><path class="fill-white" d="M31.36 47.61L44 40.25s2-1.18 0-2.37l-12.64-7.36s-2-1.18-2 .49v16.11s-.03 1.67 2 .49z"/></g></g></g></svg>