<svg id="icon-06-hands-on-colored-rshs" xmlns="http://www.w3.org/2000/svg" viewBox="0 0 50.43 49.01"><defs><style>.rshs-colored-opacity20{fill:#2a8d82;opacity:.2}</style></defs><title>icon-06-hands-on-colored-rshs</title><g id="Layer_2" data-name="Layer 2"><g id="Layer_1-2" data-name="Layer 1"><g id="icon-hands-on-colored"><path class="rshs-colored-opacity20" d="M0 30.69l.66-11.05a2 2 0 0 1 4 0v7.53c0 1.43 1.65 1.33 1.65.33V4.82a2 2 0 0 1 4 0v17c.45-.06 1-.12 1.65-.17V2a2 2 0 0 1 4 0v19.5h1.64v-16a2 2 0 0 1 4 0v16.17c.65.05 1.19.11 1.65.17V10.47a2 2 0 0 1 4 0v13.85a66.15 66.15 0 0 1 .44 7.36c0 3.88-1.44 6.79-2.44 9.17a22.49 22.49 0 0 0-2 8.16H7.92a57.61 57.61 0 0 0-1.33-9.51C4.91 37.86.86 33.83.86 33.83A3.81 3.81 0 0 1 0 30.69z"/><path class="rshs-colored-opacity20" d="M50.41 30.69l-.65-11.05a2 2 0 0 0-4 0v7.53c0 1.43-1.65 1.33-1.65.33V4.82a2 2 0 0 0-4 0v17c-.45-.06-1-.12-1.65-.17V2a2 2 0 0 0-4 0v19.5h-1.63v-16a2 2 0 0 0-4 0v16.17c-.65.05-1.19.11-1.65.17V10.47a2 2 0 0 0-4 0v13.85a66.15 66.15 0 0 0-.44 7.36c0 3.88 1.44 6.79 2.44 9.17a22.49 22.49 0 0 1 2 8.16h15.33a57.61 57.61 0 0 1 1.34-9.51c1.67-1.64 5.73-5.67 5.73-5.67a3.81 3.81 0 0 0 .83-3.14z"/><path class="rshs-colored-opacity20" d="M24.56 39.37L14.93 49h8.32a22.38 22.38 0 0 1 2-8.1v-.06z"/><path class="rshs-colored-opacity20" d="M44.12 24.32v-4.5L26.69 37.25c-.46 1.33-1 2.53-1.45 3.6v.06a22.38 22.38 0 0 1 2 8.1h15.27a57.61 57.61 0 0 1 1.34-9.51c1.67-1.64 5.73-5.67 5.73-5.67a3.81 3.81 0 0 0 .84-3.14l-.65-11.05a2 2 0 0 0-4 0v7.53c0 1.43-1.65 1.33-1.65.33v-3.18z"/><path class="rshs-colored-opacity20" d="M26.69 37.25l-2.13 2.13.63 1.48v.06-.06c.5-1.08 1.04-2.28 1.5-3.61zm.5-26.78v8.35-8.4a2 2 0 0 0-2-2 2 2 0 0 1 2 2.05zm-5.6-4.94a2 2 0 0 0-4 0v3.7l4 4zM15.95 2a2 2 0 0 0-4 0v1.58l4 4zm34.46 28.69l-.65-11.05a2 2 0 0 0-4 0v7.53c0 1.43-1.65 1.33-1.65.33V4.82a2 2 0 0 0-4 0v17c-.45-.06-1-.12-1.65-.17V2a2 2 0 0 0-4 0v19.5h-1.63v-16a2 2 0 0 0-4 0v14.96l17 17 3.7-3.67a3.81 3.81 0 0 0 .88-3.1z"/><path class="rshs-colored-opacity20" d="M23.24 10.47a2 2 0 0 1 2-2 2 2 0 0 0-2 2v4.35z"/><path class="rshs-colored-opacity20" d="M23.24 10.47v4.4l3.95 3.95v-8.35a2 2 0 1 0-3.95 0z"/></g></g></g></svg>