<svg id="icon-02-360-support-colored-rshs" xmlns="http://www.w3.org/2000/svg" viewBox="0 0 53.03 49.24"><defs><style>.rshs-colored-opacity20{fill:#2a8d82;opacity:.2}.fill-empty{fill:none}</style></defs><title>icon-02-360-support-colored-rshs</title><g id="Layer_2" data-name="Layer 2"><g id="Layer_1-2" data-name="Layer 1"><g id="icon-360-support-colored"><path class="rshs-colored-opacity20" d="M51.91 20.69L49 21.1a24.62 24.62 0 1 0-5.54 19.38l-12.81-9.73a8.6 8.6 0 1 1 2.47-7.41l-3.12.43c-1.09.15-1.26.82-.38 1.48l11.55 8.7a2 2 0 0 0 2.8-.39L52.69 22c.66-.87.31-1.47-.78-1.31z"/><path class="fill-empty" d="M24.62 16a8.6 8.6 0 0 0-4.39 16L32 20.23A8.57 8.57 0 0 0 24.62 16z"/><path class="rshs-colored-opacity20" d="M16 24.62a8.59 8.59 0 0 1 16-4.38L43.45 8.79A24.61 24.61 0 1 0 8.78 43.46L20.23 32A8.59 8.59 0 0 1 16 24.62zm14.26 23.96H19a24.6 24.6 0 0 0 11.27 0z"/><path class="rshs-colored-opacity20" d="M51.91 20.69L49 21.1A24.62 24.62 0 0 0 .5 19.67l29.06 29.06a24.6 24.6 0 0 0 13.87-8.25l-12.78-9.73a8.6 8.6 0 1 1 2.47-7.41l-3.12.43c-1.09.15-1.26.82-.38 1.48l11.55 8.7a2 2 0 0 0 2.8-.39L52.69 22c.66-.87.31-1.47-.78-1.31z"/></g></g></g></svg>