<svg id="icon-03-accreditation-colored-rshs" xmlns="http://www.w3.org/2000/svg" viewBox="0 0 70.96 48.88"><defs><style>.rshs-colored-opacity20{fill:#2a8d82;opacity:.2}</style></defs><title>icon-accreditation-colored-rshs</title><g id="Layer_2" data-name="Layer 2"><g id="Layer_1-2" data-name="Layer 1"><g id="icon-accreditation-colored"><path class="rshs-colored-opacity20" d="M71 0v48.88H53.57L44.69 40a13.87 13.87 0 0 0 1.51-1.17c.59-.5 1.49-1.26 1.89-1.26a1 1 0 1 0 0-2c-1.14 0-2.18.88-3.19 1.74a10.73 10.73 0 0 1-1.48 1.12v-.2a2.54 2.54 0 0 0-.3-2.12 1.56 1.56 0 0 0-1.23-.53 2.84 2.84 0 0 0-1.31.36l-5.1-5.1H51.8a1 1 0 0 0 0-2H33.53l-4.39-4.39h27.27a1 1 0 0 0 0-2H27.14L20.2 15.5a21.61 21.61 0 0 1 30.52 0 1.5 1.5 0 0 0 2.12-2.12 24.61 24.61 0 0 0-34.76 0L4.69 0zm-5.6 33.61a4.46 4.46 0 1 0-7 3.69v5.12l2.64-2.64 2.38 2.38V37.3a4.46 4.46 0 0 0 1.98-3.69z"/><path class="rshs-colored-opacity20" d="M33.16 0l-8.87 8.87a24.62 24.62 0 0 1 28.57 4.49 1.5 1.5 0 1 1-2.12 2.12 21.61 21.61 0 0 0-30.52 0 1.5 1.5 0 0 1-2.12 0 1.43 1.43 0 0 1-.17-.25L0 33.16v15.72h71V0zM48.1 37.57c-.4 0-1.3.76-1.89 1.26-1 .85-2.05 1.74-3.19 1.74a1.56 1.56 0 0 1-1.24-.57 2.54 2.54 0 0 1-.3-2.12v-.2A10.83 10.83 0 0 0 40 38.84c-1 .85-2 1.74-3.18 1.74a1.55 1.55 0 0 1-1.19-.58 2.54 2.54 0 0 1-.3-2.12v-.2a10.81 10.81 0 0 0-1.47 1.11c-1 .85-2 1.74-3.18 1.74a1.55 1.55 0 0 1-1.21-.53 2.54 2.54 0 0 1-.29-2.13v-.2a10.9 10.9 0 0 0-1.47 1.11c-1 .85-2 1.74-3.18 1.74a1 1 0 1 1 0-2c.4 0 1.3-.76 1.89-1.26 1-.85 2-1.74 3.18-1.74a1.55 1.55 0 0 1 1.23.53 2.54 2.54 0 0 1 .29 2.13v.2a10.86 10.86 0 0 0 1.47-1.11c1-.85 2-1.74 3.18-1.74a1.55 1.55 0 0 1 1.23.57 2.54 2.54 0 0 1 .3 2.13v.2a10.85 10.85 0 0 0 1.47-1.11c1-.85 2-1.74 3.18-1.74a1.56 1.56 0 0 1 1.23.53 2.54 2.54 0 0 1 .3 2.12v.2a10.73 10.73 0 0 0 1.48-1.12c1-.85 2-1.74 3.19-1.74a1 1 0 1 1 0 2zm3.7-6.74H18.1a1 1 0 0 1 0-2h33.7a1 1 0 0 1 0 2zm4.61-6.39H13.48a1 1 0 0 1 0-2h42.93a1 1 0 0 1 0 2zm7 12.85v4.86l-2.38-2.38-2.64 2.64V37.3a4.46 4.46 0 1 1 5 0z"/><path class="rshs-colored-opacity20" d="M0 0v48.88h71V0zm18.1 13.37a24.61 24.61 0 0 1 34.76 0 1.5 1.5 0 1 1-2.12 2.12 21.61 21.61 0 0 0-30.52 0 1.5 1.5 0 0 1-2.12-2.12zm30 24.21c-.4 0-1.3.76-1.89 1.26-1 .85-2.05 1.74-3.19 1.74a1.56 1.56 0 0 1-1.24-.58 2.54 2.54 0 0 1-.3-2.12v-.2A10.83 10.83 0 0 0 40 38.84c-1 .85-2 1.74-3.18 1.74a1.55 1.55 0 0 1-1.19-.58 2.54 2.54 0 0 1-.3-2.12v-.2a10.81 10.81 0 0 0-1.47 1.11c-1 .85-2 1.74-3.18 1.74a1.55 1.55 0 0 1-1.21-.53 2.54 2.54 0 0 1-.29-2.13v-.2a10.9 10.9 0 0 0-1.47 1.11c-1 .85-2 1.74-3.18 1.74a1 1 0 1 1 0-2c.4 0 1.3-.76 1.89-1.26 1-.85 2-1.74 3.18-1.74a1.55 1.55 0 0 1 1.23.53 2.54 2.54 0 0 1 .29 2.13v.2a10.86 10.86 0 0 0 1.47-1.11c1-.85 2-1.74 3.18-1.74a1.55 1.55 0 0 1 1.23.57 2.54 2.54 0 0 1 .3 2.13v.2a10.85 10.85 0 0 0 1.47-1.11c1-.85 2-1.74 3.18-1.74a1.56 1.56 0 0 1 1.23.53 2.54 2.54 0 0 1 .3 2.12v.2a10.73 10.73 0 0 0 1.48-1.12c1-.85 2-1.74 3.19-1.74a1 1 0 1 1 0 2zm3.7-6.74H18.1a1 1 0 0 1 0-2h33.7a1 1 0 0 1 0 2zm4.61-6.39H13.48a1 1 0 0 1 0-2h42.93a1 1 0 0 1 0 2zm7 12.85v4.86l-2.38-2.38-2.64 2.64V37.3a4.46 4.46 0 1 1 5 0z"/></g></g></g></svg>