<svg id="icon-15-program-skills-white-ras" xmlns="http://www.w3.org/2000/svg" viewBox="0 0 49.44 49.38"><defs><style>.fill-white-opacity20{fill:#fff;opacity:.2}</style></defs><title>icon-15-program-skills-white-ras</title><g id="Layer_2" data-name="Layer 2"><g id="ON_MEDIUM_BG" data-name="ON MEDIUM BG"><g id="icon-15-program-skills-white-ras"><path class="fill-white-opacity20" d="M43.05 27.35h6.36a24.82 24.82 0 0 1-22.17 22V43a2.5 2.5 0 0 0-5 0v6.37A24.82 24.82 0 0 1 .12 27.78h6.3a2.5 2.5 0 1 0 0-5H0A24.82 24.82 0 0 1 22.24 0v6.37a2.5 2.5 0 0 0 5 0V0a24.82 24.82 0 0 1 22.2 22.34h-6.39a2.5 2.5 0 0 0 0 5zM24.74 13.52a11.17 11.17 0 1 0 11.17 11.17 11.17 11.17 0 0 0-11.17-11.17z"/><path class="fill-white-opacity20" d="M30.75 22.94h-4.1v-4.11h-3.82v4.11h-4.11v3.82h4.11v4.1h3.82v-4.1h4.1v-3.82z"/><path class="fill-white-opacity20" d="M43.05 22.35h6.39a24.68 24.68 0 0 0-5.39-13.21l-9.77 9.77A11.15 11.15 0 0 1 19 34.23L9.18 44a24.68 24.68 0 0 0 13.05 5.37V43a2.5 2.5 0 0 1 5 0v6.37a24.82 24.82 0 0 0 22.17-22h-6.35a2.5 2.5 0 0 1 0-5z"/><path class="fill-white-opacity20" d="M26.65 30.86v-4.1h4.1v-3.82h-.5l-7.42 7.42v.5h3.82zm-13.03-5.14L2.2 14.3A24.68 24.68 0 0 0 0 22.78h6.42a2.5 2.5 0 1 1 0 5H.12a24.82 24.82 0 0 0 22.12 21.6V43a2.5 2.5 0 0 1 5 0v6.37a24.63 24.63 0 0 0 7.88-2.16L23.7 35.81a11.16 11.16 0 0 1-10.08-10.09z"/></g></g></g></svg>