<svg id="icon-05-flexchoice-white-ras" xmlns="http://www.w3.org/2000/svg" viewBox="0 0 43.65 48.92"><defs><style>.fill-white-opacity30{fill:#fff;opacity:.3}.opacity30{opacity:.3}.fill-white{fill:#fff}.fill-empty-stroke10-ras{fill:none;stroke:#779145;stroke-miterlimit:10;stroke-width:3px}</style></defs><title>icon-05-flexchoice-white-ras</title><g id="Layer_2" data-name="Layer 2"><g id="ON_MEDIUM_BG" data-name="ON MEDIUM BG"><g id="icon-05-flexchoice-white-ras"><path class="fill-white-opacity30" d="M43.65 26.16a21.69 21.69 0 0 0-4.22-12l.1-.09 2-2a2.54 2.54 0 1 0-3.63-3.54L36 10.45a21.71 21.71 0 0 0-11.6-5.06V2.57a2.54 2.54 0 0 0-1.77-2.4 1.77 1.77 0 0 0-1.3-.09 2.55 2.55 0 0 0-2 2.49V5.4a21.83 21.83 0 1 0 24.16 24.52c.17-2.12.16-3.76.16-3.76zm-20.9 4.32a3.52 3.52 0 1 1-.08-6.62l12.11 3.33zm15.28-4A16.24 16.24 0 0 0 23.34 11V9A18.21 18.21 0 0 1 40 26.48z"/><path class="opacity30 fill-white" d="M23.73 30.21l-1 .27a3.51 3.51 0 0 1-4.08-5.3L5.79 12.28a21.82 21.82 0 0 0 30.84 30.83z"/><path class="fill-white-opacity30" d="M43.65 26.16a21.81 21.81 0 0 0-.93-5.45l-3 3a18.24 18.24 0 0 1 .28 2.77h-2c0-.34-.05-.67-.09-1L15.46 48a21.83 21.83 0 0 0 28-18c.2-2.2.19-3.84.19-3.84z"/></g></g></g></svg>