<svg id="icon-social-instagram" xmlns="http://www.w3.org/2000/svg" viewBox="0 0 17 20"><title>icon-social-instagram</title><path d="M11.429 10c0-1.574-1.283-2.857-2.857-2.857s-2.857 1.283-2.857 2.857 1.283 2.857 2.857 2.857 2.857-1.283 2.857-2.857zM12.969 10c0 2.433-1.964 4.397-4.397 4.397s-4.397-1.964-4.397-4.397 1.964-4.397 4.397-4.397 4.397 1.964 4.397 4.397zM14.174 5.424c0 0.569-0.458 1.027-1.027 1.027s-1.027-0.458-1.027-1.027 0.458-1.027 1.027-1.027 1.027 0.458 1.027 1.027zM8.571 2.969c-1.25 0-3.929-0.1-5.056 0.346-0.391 0.156-0.681 0.346-0.982 0.647s-0.491 0.592-0.647 0.982c-0.446 1.127-0.346 3.806-0.346 5.056s-0.1 3.929 0.346 5.056c0.156 0.391 0.346 0.681 0.647 0.982s0.592 0.491 0.982 0.647c1.127 0.446 3.806 0.346 5.056 0.346s3.929 0.1 5.056-0.346c0.391-0.156 0.681-0.346 0.982-0.647s0.491-0.592 0.647-0.982c0.446-1.127 0.346-3.806 0.346-5.056s0.1-3.929-0.346-5.056c-0.156-0.391-0.346-0.681-0.647-0.982s-0.592-0.491-0.982-0.647c-1.127-0.446-3.806-0.346-5.056-0.346zM17.143 10c0 1.183 0.011 2.355-0.056 3.538-0.067 1.373-0.379 2.589-1.384 3.594s-2.221 1.317-3.594 1.384c-1.183 0.067-2.355 0.056-3.538 0.056s-2.355 0.011-3.538-0.056c-1.373-0.067-2.589-0.379-3.594-1.384s-1.317-2.221-1.384-3.594c-0.067-1.183-0.056-2.355-0.056-3.538s-0.011-2.355 0.056-3.538c0.067-1.373 0.379-2.589 1.384-3.594s2.221-1.317 3.594-1.384c1.183-0.067 2.355-0.056 3.538-0.056s2.355-0.011 3.538 0.056c1.373 0.067 2.589 0.379 3.594 1.384s1.317 2.221 1.384 3.594c0.067 1.183 0.056 2.355 0.056 3.538z"></path></svg>