<svg id="icon-social-google-plus" xmlns="http://www.w3.org/2000/svg" viewBox="0 0 26 20"><title>icon-social-google-plus</title><path d="M16.038 10.19c0 4.676-3.136 7.991-7.857 7.991-4.52 0-8.181-3.661-8.181-8.181s3.661-8.181 8.181-8.181c2.21 0 4.051 0.804 5.48 2.143l-2.221 2.132c-0.603-0.58-1.663-1.261-3.259-1.261-2.79 0-5.067 2.31-5.067 5.167s2.277 5.167 5.067 5.167c3.237 0 4.453-2.333 4.643-3.527h-4.643v-2.813h7.723c0.078 0.413 0.134 0.826 0.134 1.362zM25.714 8.828v2.344h-2.333v2.333h-2.344v-2.333h-2.333v-2.344h2.333v-2.333h2.344v2.333h2.333z"></path></svg>