<svg id="icon-briefcase" xmlns="http://www.w3.org/2000/svg" viewBox="0 0 20 20"><title>briefcase</title><path d="M7.143 2.857h5.714v-1.429h-5.714v1.429zM20 10v5.357c0 0.982-0.804 1.786-1.786 1.786h-16.429c-0.982 0-1.786-0.804-1.786-1.786v-5.357h7.5v1.786c0 0.391 0.324 0.714 0.714 0.714h3.571c0.391 0 0.714-0.324 0.714-0.714v-1.786h7.5zM11.429 10v1.429h-2.857v-1.429h2.857zM20 4.643v4.286h-20v-4.286c0-0.982 0.804-1.786 1.786-1.786h3.929v-1.786c0-0.592 0.48-1.071 1.071-1.071h6.429c0.592 0 1.071 0.48 1.071 1.071v1.786h3.929c0.982 0 1.786 0.804 1.786 1.786z"></path></svg>