<svg id="icon-laptop" xmlns="http://www.w3.org/2000/svg" viewBox="0 0 21 20"><title>icon-laptop</title><path d="M4.643 14.286c-0.982 0-1.786-0.804-1.786-1.786v-7.857c0-0.982 0.804-1.786 1.786-1.786h12.143c0.982 0 1.786 0.804 1.786 1.786v7.857c0 0.982-0.804 1.786-1.786 1.786h-12.143zM4.286 4.643v7.857c0 0.19 0.167 0.357 0.357 0.357h12.143c0.19 0 0.357-0.167 0.357-0.357v-7.857c0-0.19-0.167-0.357-0.357-0.357h-12.143c-0.19 0-0.357 0.167-0.357 0.357zM19.643 15h1.786v1.071c0 0.592-0.804 1.071-1.786 1.071h-17.857c-0.982 0-1.786-0.48-1.786-1.071v-1.071h19.643zM11.607 16.071c0.1 0 0.179-0.078 0.179-0.179s-0.078-0.179-0.179-0.179h-1.786c-0.1 0-0.179 0.078-0.179 0.179s0.078 0.179 0.179 0.179h1.786z"></path></svg>