<svg id="icon-piggy-bank" xmlns="http://www.w3.org/2000/svg" viewBox="0 0 20 20"><title>icon-piggy-bank</title><path d="M15.421 13.693c0 0 2.081-1.424 2.081-4.232 0-4.18-4.43-5.726-6.812-5.684s-3.092 0.669-3.092 0.669-0.811-0.589-1.67-1.083c-0.658-0.256-0.81-0.293-1.267-0.146-0.366 0-0.136 0.609 0.011 0.828 0.146 0.219 0.854 1.431 0.854 1.431s-1.486 1.531-1.596 2.537c0-0.018-0.7-0.006-1.084-0.006s-0.348 0.418-0.348 0.418l0.011 2.946c0 0-0.024 0.418 0.324 0.418s1.086 0.008 1.086 0.008 1.039 1.509 1.698 1.784c0 0.018-0.569 1.564-0.569 1.564s-0.274 0.476 0.219 0.659c0.494 0.183 1.782 0.723 2.331 0.888s0.627-0.209 0.627-0.209l0.543-1.173 3.553 0.006 0.543 1.209c0 0 0.104 0.561 0.836 0.251s1.531-0.679 2.134-0.99c0.603-0.311 0.206-0.891 0.206-0.891l-0.62-1.202zM5.826 8.602c-0.333 0-0.603-0.271-0.603-0.604s0.27-0.603 0.603-0.603 0.604 0.27 0.604 0.603-0.271 0.604-0.604 0.604zM14.328 6.723c-0.192 0.228-0.318 0.060-0.473 0.014 0 0-0.657-0.609-1.622-0.894-0.999-0.294-2.051-0.152-2.051-0.152-0.155-0.046-0.343-0.051-0.344-0.29 0.008-0.296 0.367-0.298 0.362-0.308 0 0 1.184-0.109 2.174 0.182 0.974 0.286 1.719 0.909 1.719 0.909s0.398 0.274 0.235 0.539z"></path></svg>