<svg id="icon-desktop" xmlns="http://www.w3.org/2000/svg" viewBox="0 0 21 20"><title>icon-desktop</title><path d="M20 11.071v-9.286c0-0.19-0.167-0.357-0.357-0.357h-17.857c-0.19 0-0.357 0.167-0.357 0.357v9.286c0 0.19 0.167 0.357 0.357 0.357h17.857c0.19 0 0.357-0.167 0.357-0.357zM21.429 1.786v12.143c0 0.982-0.804 1.786-1.786 1.786h-6.071c0 0.949 0.714 1.752 0.714 2.143s-0.324 0.714-0.714 0.714h-5.714c-0.391 0-0.714-0.324-0.714-0.714 0-0.413 0.714-1.172 0.714-2.143h-6.071c-0.982 0-1.786-0.804-1.786-1.786v-12.143c0-0.982 0.804-1.786 1.786-1.786h17.857c0.982 0 1.786 0.804 1.786 1.786z"></path></svg>