<svg id="icon-people-group" xmlns="http://www.w3.org/2000/svg" viewBox="0 0 21 20"><title>icon-people-group</title><path d="M6.618 10c-1.161 0.033-2.21 0.536-2.958 1.429h-1.496c-1.116 0-2.165-0.536-2.165-1.775 0-0.904-0.033-3.94 1.384-3.94 0.234 0 1.395 0.949 2.902 0.949 0.513 0 1.004-0.089 1.484-0.257-0.033 0.246-0.056 0.491-0.056 0.737 0 1.016 0.324 2.020 0.904 2.857zM18.571 17.109c0 1.808-1.194 2.891-2.98 2.891h-9.754c-1.786 0-2.98-1.083-2.98-2.891 0-2.522 0.592-6.395 3.862-6.395 0.379 0 1.763 1.551 3.996 1.551s3.616-1.551 3.996-1.551c3.27 0 3.862 3.873 3.862 6.395zM7.143 2.857c0 1.574-1.283 2.857-2.857 2.857s-2.857-1.283-2.857-2.857 1.283-2.857 2.857-2.857 2.857 1.283 2.857 2.857zM15 7.143c0 2.366-1.92 4.286-4.286 4.286s-4.286-1.92-4.286-4.286 1.92-4.286 4.286-4.286 4.286 1.92 4.286 4.286zM21.429 9.654c0 1.239-1.049 1.775-2.165 1.775h-1.496c-0.748-0.893-1.797-1.395-2.958-1.429 0.58-0.837 0.904-1.842 0.904-2.857 0-0.246-0.022-0.491-0.056-0.737 0.48 0.167 0.971 0.257 1.484 0.257 1.507 0 2.667-0.949 2.902-0.949 1.417 0 1.384 3.036 1.384 3.94zM20 2.857c0 1.574-1.283 2.857-2.857 2.857s-2.857-1.283-2.857-2.857 1.283-2.857 2.857-2.857 2.857 1.283 2.857 2.857z"></path></svg>