<svg id="icon-duo-persons" xmlns="http://www.w3.org/2000/svg" viewBox="0 0 33 20"><title>icon-duo-persons</title><path d="M20.35 18.487c-0.047-0.561-0.252-1.067-0.57-1.482l0.005 0.007c-0.487-0.529-1.119-0.919-1.832-1.107l-0.027-0.006c-0.783-0.235-1.62-0.383-2.387-0.672-0.709-0.255-1.583-0.672-2.057-1.257-0.234-0.369-0.374-0.819-0.374-1.302 0-0.103 0.006-0.204 0.019-0.304l-0.001 0.012c0.494 0.074 0.961 0.407 1.472 0.491 0.124 0.024 0.267 0.037 0.413 0.037 0.422 0 0.817-0.112 1.158-0.309l-0.011 0.006c-1.203-0.968-1.032-2.182-0.857-3.479 0.218-1.657 0.511-3.334 0.145-5.042-0.551-2.511-2.887-4.061-5.257-4.081s-4.706 1.57-5.261 4.077c-0.363 1.711-0.074 3.388 0.145 5.042 0.182 1.311 0.336 2.511-0.857 3.496 0.33 0.19 0.725 0.303 1.146 0.303 0.146 0 0.289-0.013 0.428-0.039l-0.014 0.002c0.511-0.087 0.978-0.42 1.472-0.491 0.011 0.088 0.017 0.189 0.017 0.292 0 0.482-0.139 0.932-0.38 1.312l0.006-0.010c-0.474 0.602-1.345 1.008-2.057 1.257-0.766 0.272-1.603 0.42-2.387 0.672-0.738 0.189-1.37 0.573-1.857 1.094l-0.002 0.002c-0.313 0.409-0.518 0.916-0.564 1.469l-0.001 0.010c-0.015 0.104-0.024 0.225-0.024 0.348 0 0.166 0.016 0.328 0.047 0.485l-0.003-0.016c0.020 0.256 0.060 0.492 0.121 0.72l-0.006-0.028h20.057c0.094-0.347 0.148-0.744 0.148-1.155 0-0.125-0.005-0.248-0.015-0.37l0.001 0.016z"></path><path d="M32.245 16.998c-0.060-0.191-0.129-0.353-0.21-0.508l0.008 0.017c-0.257-0.529-0.69-0.94-1.221-1.161l-0.016-0.006c-1.008-0.474-2.148-0.602-3.207-0.948-2.689-0.874-2.968-1.476-1.731-4.064 0.837-1.768 1.439-3.59 1.365-5.573-0.104-2.763-1.822-4.511-4.524-4.652-0.128 0-0.259 0-0.393 0-2.897 0.017-4.773 1.839-4.881 4.706-0.074 2.061 0.582 3.929 1.472 5.738 0.383 0.766 0.766 1.513 0.692 2.403-0.202 1.583-2.965 1.654-4.424 2.034 0.315 0.13 0.719 0.268 1.133 0.383l0.083 0.020c0.38 0.101 1.503 0.38 1.808 0.487 0.643 0.219 1.19 0.576 1.629 1.037l0.002 0.002c0.406 0.513 0.651 1.169 0.651 1.882 0 0.14-0.009 0.278-0.028 0.413l0.002-0.016c-0.024 0.301-0.068 0.577-0.132 0.844l0.008-0.038h0.955c0.124-0.487 0.292-1.045 0.413-1.526s0.255-0.928 0.4-1.439c0.050-0.164 0.087-0.356 0.104-0.554l0.001-0.010c-0.013-0.16-0.073-0.305-0.166-0.422l0.001 0.002c-0.182-0.336-0.383-0.672-0.548-1.008-0.091-0.182-0.111-0.202-0.202-0.383-0.054-0.091-0.182-0.292-0.111-0.4s0.272-0.091 0.336-0.111c0.235-0.017 0.528-0.037 0.618-0.037 0.192 0 0.383 0 0.578 0h0.195c0.128 0 0.252 0 0.38 0s0.383 0.017 0.618 0.037c0.054 0.020 0.292 0.037 0.336 0.111s-0.054 0.309-0.111 0.4c-0.091 0.182-0.111 0.202-0.202 0.383-0.138 0.289-0.299 0.565-0.454 0.84l-0.091 0.161c-0.102 0.115-0.171 0.261-0.191 0.423l-0 0.004c0.020 0.209 0.059 0.401 0.116 0.585l-0.005-0.020c0.145 0.511 0.272 0.948 0.4 1.439s0.286 1.039 0.413 1.526h8.363c0.027-0.686 0.094-1.973-0.235-3.002z"></path></svg>