<svg id="icon-graduation-cap" xmlns="http://www.w3.org/2000/svg" viewBox="0 0 26 20"><title>icon-graduation-cap</title><path d="M19.799 9.33l0.201 3.527c0.089 1.574-3.203 2.857-7.143 2.857s-7.232-1.283-7.143-2.857l0.201-3.527 6.406 2.020c0.179 0.056 0.357 0.078 0.536 0.078s0.357-0.022 0.536-0.078zM25.714 5.714c0 0.156-0.1 0.29-0.246 0.346l-12.5 3.929c-0.045 0.011-0.078 0.011-0.112 0.011s-0.067 0-0.112-0.011l-7.277-2.299c-0.636 0.502-1.083 1.73-1.172 3.237 0.424 0.246 0.703 0.692 0.703 1.217 0 0.502-0.257 0.938-0.647 1.194l0.647 4.833c0.011 0.1-0.022 0.201-0.089 0.279s-0.167 0.123-0.268 0.123h-2.143c-0.1 0-0.201-0.045-0.268-0.123s-0.1-0.179-0.089-0.279l0.647-4.833c-0.391-0.257-0.647-0.692-0.647-1.194 0-0.536 0.301-0.993 0.725-1.239 0.067-1.306 0.402-2.712 1.094-3.683l-3.717-1.161c-0.145-0.056-0.246-0.19-0.246-0.346s0.1-0.29 0.246-0.346l12.5-3.929c0.045-0.011 0.078-0.011 0.112-0.011s0.067 0 0.112 0.011l12.5 3.929c0.145 0.056 0.246 0.19 0.246 0.346z"></path></svg>