<svg id="icon-social-facebook-square" xmlns="http://www.w3.org/2000/svg" viewBox="0 0 17 20"><title>icon-social-facebook-square</title><path d="M13.929 1.429c1.775 0 3.214 1.44 3.214 3.214v10.714c0 1.775-1.44 3.214-3.214 3.214h-2.098v-6.641h2.221l0.335-2.589h-2.556v-1.652c0-0.748 0.201-1.25 1.283-1.25l1.362-0.011v-2.31c-0.234-0.033-1.049-0.1-1.987-0.1-1.975 0-3.337 1.205-3.337 3.415v1.908h-2.232v2.589h2.232v6.641h-5.937c-1.775 0-3.214-1.44-3.214-3.214v-10.714c0-1.775 1.44-3.214 3.214-3.214h10.714z"></path></svg>