<svg id="icon-social-linkedin-square" xmlns="http://www.w3.org/2000/svg" viewBox="0 0 17 20"><title>icon-social-linkedin-square</title><path d="M2.645 15.781h2.578v-7.746h-2.578v7.746zM5.391 5.647c-0.011-0.759-0.558-1.339-1.44-1.339s-1.462 0.58-1.462 1.339c0 0.737 0.558 1.339 1.429 1.339h0.011c0.904 0 1.462-0.603 1.462-1.339zM11.92 15.781h2.578v-4.442c0-2.377-1.272-3.482-2.969-3.482-1.384 0-1.998 0.77-2.333 1.306h0.022v-1.127h-2.578s0.033 0.725 0 7.746v0h2.578v-4.33c0-0.223 0.011-0.458 0.078-0.625 0.19-0.458 0.614-0.938 1.328-0.938 0.926 0 1.295 0.703 1.295 1.752v4.141zM17.143 4.643v10.714c0 1.775-1.44 3.214-3.214 3.214h-10.714c-1.775 0-3.214-1.44-3.214-3.214v-10.714c0-1.775 1.44-3.214 3.214-3.214h10.714c1.775 0 3.214 1.44 3.214 3.214z"></path></svg>