<svg id="icon-mail-forward" xmlns="http://www.w3.org/2000/svg" viewBox="0 0 20 20"><title>icon-mail-forward</title><path d="M20 7.143c0 0.19-0.078 0.368-0.212 0.502l-5.714 5.714c-0.134 0.134-0.313 0.212-0.502 0.212-0.391 0-0.714-0.324-0.714-0.714v-2.857h-2.5c-4.81 0-7.969 0.926-7.969 6.25 0 0.458 0.022 0.915 0.056 1.373 0.011 0.179 0.056 0.379 0.056 0.558 0 0.212-0.134 0.391-0.357 0.391-0.156 0-0.234-0.078-0.313-0.19-0.167-0.234-0.29-0.592-0.413-0.848-0.636-1.429-1.417-3.471-1.417-5.033 0-1.25 0.123-2.533 0.592-3.717 1.551-3.85 6.105-4.498 9.766-4.498h2.5v-2.857c0-0.391 0.324-0.714 0.714-0.714 0.19 0 0.368 0.078 0.502 0.212l5.714 5.714c0.134 0.134 0.212 0.313 0.212 0.502z"></path></svg>