<svg id="icon-share-square-o" xmlns="http://www.w3.org/2000/svg" viewBox="0 0 19 20"><title>icon-share-square-o</title><path d="M15.714 11.038v2.891c0 1.775-1.44 3.214-3.214 3.214h-9.286c-1.775 0-3.214-1.44-3.214-3.214v-9.286c0-1.775 1.44-3.214 3.214-3.214h2.846c0.19 0 0.357 0.156 0.357 0.357 0 0.179-0.123 0.324-0.29 0.357-0.558 0.19-1.060 0.413-1.484 0.67-0.056 0.022-0.112 0.045-0.179 0.045h-1.25c-0.982 0-1.786 0.804-1.786 1.786v9.286c0 0.982 0.804 1.786 1.786 1.786h9.286c0.982 0 1.786-0.804 1.786-1.786v-2.388c0-0.134 0.078-0.257 0.201-0.324 0.223-0.1 0.424-0.246 0.603-0.413 0.1-0.1 0.257-0.145 0.391-0.089s0.234 0.179 0.234 0.324zM18.359 5.502l-4.286 4.286c-0.134 0.145-0.313 0.212-0.502 0.212-0.089 0-0.19-0.022-0.279-0.056-0.257-0.112-0.435-0.368-0.435-0.658v-2.143h-1.786c-2.455 0-4.018 0.469-4.888 1.462-0.904 1.038-1.172 2.712-0.826 5.279 0.022 0.156-0.078 0.313-0.223 0.379-0.045 0.011-0.089 0.022-0.134 0.022-0.112 0-0.223-0.056-0.29-0.145-0.078-0.112-1.853-2.623-1.853-4.855 0-2.991 0.938-6.429 8.214-6.429h1.786v-2.143c0-0.29 0.179-0.547 0.435-0.658 0.089-0.033 0.19-0.056 0.279-0.056 0.19 0 0.368 0.078 0.502 0.212l4.286 4.286c0.279 0.279 0.279 0.725 0 1.004z"></path></svg>