<svg id="icon-info-circle" xmlns="http://www.w3.org/2000/svg" viewBox="0 0 17 20"><title>icon-info-circle</title><path d="M11.429 15.357v-1.786c0-0.201-0.156-0.357-0.357-0.357h-1.071v-5.714c0-0.201-0.156-0.357-0.357-0.357h-3.571c-0.201 0-0.357 0.156-0.357 0.357v1.786c0 0.201 0.156 0.357 0.357 0.357h1.071v3.571h-1.071c-0.201 0-0.357 0.156-0.357 0.357v1.786c0 0.201 0.156 0.357 0.357 0.357h5c0.201 0 0.357-0.156 0.357-0.357zM10 5.357v-1.786c0-0.201-0.156-0.357-0.357-0.357h-2.143c-0.201 0-0.357 0.156-0.357 0.357v1.786c0 0.201 0.156 0.357 0.357 0.357h2.143c0.201 0 0.357-0.156 0.357-0.357zM17.143 10c0 4.732-3.839 8.571-8.571 8.571s-8.571-3.839-8.571-8.571 3.839-8.571 8.571-8.571 8.571 3.839 8.571 8.571z"></path></svg>