<svg id="icon-phone" xmlns="http://www.w3.org/2000/svg" viewBox="0 0 16 20"><title>icon-phone</title><path d="M15.714 13.839c0 0.402-0.179 1.183-0.346 1.551-0.234 0.547-0.859 0.904-1.362 1.183-0.658 0.357-1.328 0.569-2.076 0.569-1.038 0-1.975-0.424-2.924-0.77-0.681-0.246-1.339-0.547-1.953-0.926-1.897-1.172-4.185-3.46-5.357-5.357-0.379-0.614-0.681-1.272-0.926-1.953-0.346-0.949-0.77-1.886-0.77-2.924 0-0.748 0.212-1.417 0.569-2.076 0.279-0.502 0.636-1.127 1.183-1.362 0.368-0.167 1.15-0.346 1.551-0.346 0.078 0 0.156 0 0.234 0.033 0.234 0.078 0.48 0.625 0.592 0.848 0.357 0.636 0.703 1.283 1.071 1.908 0.179 0.29 0.513 0.647 0.513 0.993 0 0.681-2.020 1.674-2.020 2.277 0 0.301 0.279 0.692 0.435 0.96 1.127 2.031 2.533 3.438 4.565 4.565 0.268 0.156 0.658 0.435 0.96 0.435 0.603 0 1.596-2.020 2.277-2.020 0.346 0 0.703 0.335 0.993 0.513 0.625 0.368 1.272 0.714 1.908 1.071 0.223 0.112 0.77 0.357 0.848 0.592 0.033 0.078 0.033 0.156 0.033 0.234z"></path></svg>