<svg id="ras-logo-horizontal-white" xmlns="http://www.w3.org/2000/svg" viewBox="0 0 576 121.86"> <defs> <style>.color-white{fill: #fff;}.opaque-35{opacity: 0.35;}.opaque-89{opacity: 0.89;}.color-white-opaque-38{fill: #fff; opacity: 0.38;}</style> </defs> <title>ras-logo-horizontal-white</title> <g id="Layer_2" data-name="Layer 2"> <g id="ras-logo-horizontal-white"> <g id="ras-logo-horizontal-white-2" data-name="ras-logo-horizontal-white"><path class="color-white" d="M156.6 85.06l.3-3.93a61 61 0 0 0-11.14-1.19c-7.12 0-14.72 3.94-14.72 15 0 10.15 5.62 16 15.41 16a24.38 24.38 0 0 0 10.49-2.2v-1.11a25.28 25.28 0 0 1-6.07.8c-6.59 0-13.64-3.94-13.64-15 0-7.58 3.1-12.12 8.28-12.12 3.99-.06 8.29 1.89 11.09 3.75zM188.78 80C181 80 172 84 172 95.48c0 9.38 6 15.45 15.31 15.45 7.74 0 16.78-4.06 16.78-15.5 0-9.43-6.01-15.43-15.31-15.43zm.1 29.25c-6.42 0-10.74-6.11-10.74-15.19 0-7.63 3.48-12.37 9.08-12.37 6.42 0 10.74 6.11 10.74 15.19-.01 7.62-3.49 12.35-9.08 12.35zm37.84-.45V80.66h-5.85v29.6h18v-2.59a48.14 48.14 0 0 1-9.7 1.14zm36.4 0V80.66h-5.85v29.6h18v-2.59a48.2 48.2 0 0 1-9.71 1.14zm37 0V95.49h12.44v-1.36h-12.44v-12h3.07a52.06 52.06 0 0 1 9.75 1v-2.47h-18.67v29.6h19.46v-2.59a47.7 47.7 0 0 1-9.7 1.14zm36.03-15.38c0-7.62 3.46-12.17 9.26-12.17 4.54 0 8.79 2.37 11 3.8l.32-3.94a56.88 56.88 0 0 0-11.13-1.18c-3.63 0-15.46 1.06-15.46 14.74 0 10.31 5.78 16.21 15.85 16.21a29.07 29.07 0 0 0 10.84-1.93v-12h-3.88v11.71l-1.14.25a15.07 15.07 0 0 1-3.07.32c-7.31-.05-12.59-6.67-12.59-15.81zm43.47 15.38V95.49h12.44v-1.36h-12.44v-12h3.07a52 52 0 0 1 9.76 1v-2.47h-18.69v29.6h19.46v-2.59a47.78 47.78 0 0 1-9.7 1.14z" id="college"/><path class="color-white" d="M160.9 41.23c8.25-2.07 13.38-7.69 13.38-14.66 0-12-13.64-13.53-25.53-13.53-5.36 0-11.19.38-15.87.68l-1.84.12v55.6h12.41V18.76l.64-.15a26.91 26.91 0 0 1 5.94-.73c7.82 0 12.32 3.8 12.32 10.41 0 6.85-5.48 10.91-15.07 11.16v3l11.7 27h14l-13.14-27.96zm52.2 26.19h13.13L207.95 17.5h-15.39l-15.5 42.63 3.43 7.29h2.61l4.44-13.18h21zM189.48 48.5L198 24l8.5 24.5zm65.06-10.65c-.73-.31-1.54-.62-2.39-.94-5-1.93-11.16-4.3-11.16-9.49 0-3.38 2.8-5.48 7.31-5.48 6.91 0 13.76 4.48 15 5.33h.07l.67-8.58a46.36 46.36 0 0 0-14.9-2.32c-9.14 0-18.92 3.9-18.92 14.86 0 8.21 5.94 11.52 13.72 15 .76.34 1.55.68 2.35 1 5 2.11 10.16 4.3 10.16 9.26 0 4.22-2.86 6.62-7.85 6.62-8.4 0-16.24-6.4-17.65-7.62l-.83 9.85a46 46 0 0 0 17.16 3.12c13.28 0 20-5.44 20-16.16.03-8.37-5.5-11.38-12.74-14.45zM320.4 17.5l-13.52 35.38-11.86-35.38h-14.58l-5.37 49.92h8.33l4.22-37.85 13.73 37.85h7.44l14.64-37.98 2.78 37.98h10.83l-3.93-49.92H320.4zm59.78 19.59V49.5a28.46 28.46 0 0 1-.33 3.55c-.73 6.82-5.95 9.24-10.19 9.24-7.28 0-11-4.41-11-13.1V17.5h-12.21v34c0 11.38 7 16.92 21.42 16.92 13.61 0 21.73-6.81 21.73-18.22V17.5h-10.38a152 152 0 0 1 .96 19.59zm42.82.77c-.72-.31-1.51-.62-2.34-.93h-.12c-4.95-1.9-11.09-4.27-11.09-9.46 0-3.38 2.8-5.48 7.31-5.48 6.9 0 13.76 4.48 15 5.33h.06l.68-8.58a46.37 46.37 0 0 0-14.9-2.32c-9.14 0-18.92 3.9-18.92 14.86 0 8.21 5.94 11.52 13.72 15 .76.34 1.55.68 2.35 1 5 2.11 10.16 4.3 10.16 9.26 0 4.22-2.86 6.62-7.86 6.62-8.41 0-16.24-6.4-17.65-7.62l-.83 9.85a45.93 45.93 0 0 0 17.16 3.12c13.28 0 20-5.44 20-16.16.08-8.42-5.45-11.43-12.73-14.49zm43.75 0c-.7-.3-1.47-.6-2.28-.92l-.18-.07c-4.94-1.89-11.08-4.26-11.08-9.46 0-3.38 2.8-5.48 7.31-5.48 6.9 0 13.77 4.48 15 5.33h.06l.67-8.58a46.45 46.45 0 0 0-14.9-2.32c-9.15 0-18.92 3.9-18.92 14.86 0 8.21 6 11.52 13.72 15 .76.34 1.55.68 2.36 1 5 2.11 10.16 4.3 10.16 9.26 0 4.22-2.87 6.62-7.86 6.62-8.41 0-16.23-6.4-17.64-7.62l-.82 9.85a46 46 0 0 0 17.16 3.12c13.28 0 20-5.44 20-16.16 0-8.36-5.51-11.37-12.76-14.43zm33.74 24.36V43.95h19.75v-5h-19.75V22.78h3.4a86.31 86.31 0 0 1 17 2V17.5h-32.64v49.92h33.87V60a75.2 75.2 0 0 1-16.9 2.21zm29.93-44.99v50.19h8.96V28.83l23.85 38.59H576V17.23h-9.12v36.14l-22.69-36.14h-13.77z" id="rasmussen"/> <g id="crest"><path class="opaque-35 color-white" d="M99.62 8.86c-.77-.2-2-.61-3.62-1.12C97.31 72 95.85 80.5 58.68 108.32a119.16 119.16 0 0 0-3.75 13.53C100.36 90.41 101.08 81 99.62 8.86zM.1 8.86c-.58 71.7-.13 80.94 45.09 113A125.69 125.69 0 0 0 41.26 108C4 80 3.52 71.49 4 7.68"/><path class="opaque-89 color-white" d="M96 7.74v-.06C91.85 6.57 73.78 0 50.35 0h-2.19C25.78.41 8.32 6.51 4 7.68 3.52 71.49 4 80 41.26 108a52.21 52.21 0 0 0-3.17-8c3.58.83 6.34 1.76 12.07 1.76s8.09-.88 11.75-1.76c-.34.32-1.74 3.85-3.23 8.34C95.85 80.5 97.31 72 96 7.74zM75.75 58.92c-1.94 14.74-13.6 20.82-18.47 27.67 0 0 3-9.15-4-21.64-1 1.59-2.24 3.28-3.64 5.17C38.78 83.8 42.69 94 42.69 94c-4-5.34-14.29-12.26-15.59-21.22C25.71 63.18 35 55 41.43 48.14c-4.78-7.4-7.55-12.19-3.38-23.33 1-2.69 4-9.55 8-18.27a33.42 33.42 0 0 0 8.18 21c8.18 9.09 23.29 17.94 21.52 31.38z"/><path class="color-white-opaque-38" d="M55.14 44.83c-1.26-3-3.14-5.56-6-11.26 0 0 .47 5.12-5.93 12.61-.57.65-1.17 1.33-1.81 2 1.53 2.34 3.4 4.81 5.62 7.67a60.33 60.33 0 0 1 6.35 9.07c4.11-6.35 5.41-11.35 1.77-20.09z"/></g> </g> </g> </g></svg>