<svg id="ras-logo-horizontal" xmlns="http://www.w3.org/2000/svg" viewBox="0 0 558 116.76"> <defs> <style>.brand-green-dark{fill: #004712}.brand-green-light{fill: #517f56}.brand-yellow-dark{fill: #eeb111}.brand-yellow-light{fill: #f8e39a}</style> </defs> <title>ras-logo-horizontal</title> <g id="ras-logo-horizontal-logo" data-name="ras-logo-horizontal-logo"> <path class="brand-green-dark" d="M151 83.28l.29-3.82a60.13 60.13 0 0 0-10.81-1.16c-6.91 0-14.28 3.82-14.28 14.53 0 9.86 5.45 15.51 15 15.51a23.63 23.63 0 0 0 10.18-2.14v-1.08a24.43 24.43 0 0 1-5.89.78c-6.4 0-13.24-3.82-13.24-14.56 0-7.36 3-11.76 8-11.76 3.88 0 8.05 1.89 10.75 3.7zm31.24-4.93c-7.51 0-16.29 3.94-16.29 15 0 9.11 5.83 15 14.86 15 7.51 0 16.29-3.94 16.29-15 0-9.12-5.83-15-14.86-15zm.09 28.39c-6.23 0-10.42-5.93-10.42-14.74 0-7.4 3.37-12 8.8-12 6.23 0 10.42 5.93 10.42 14.75.01 7.39-3.36 11.99-8.79 11.99zm36.74-.42V79h-5.67v28.73h17.5v-2.53a45.8 45.8 0 0 1-9.42 1.12zm35.31 0V79h-5.67v28.73h17.5v-2.53a45.83 45.83 0 0 1-9.42 1.12zm35.9 0V93.4h12.07v-1.32h-12.07V80.47h3a50.64 50.64 0 0 1 9.47 1V79h-18.14v28.73h18.89v-2.52a46.18 46.18 0 0 1-9.42 1.11zm34.97-14.93c0-7.4 3.36-11.81 9-11.81 4.41 0 8.53 2.3 10.63 3.69l.31-3.82a55.29 55.29 0 0 0-10.8-1.14c-3.52 0-15 1-15 14.29 0 10 5.6 15.74 15.38 15.74a28.24 28.24 0 0 0 10.51-1.88V94.77h-3.76v11.37l-1.1.24a14.49 14.49 0 0 1-3 .31c-7.05 0-12.17-6.43-12.17-15.3zm42.18 14.93V93.4h12.07v-1.32h-12.07V80.47h3a50.56 50.56 0 0 1 9.47 1V79h-18.15v28.73h18.89v-2.52a46.23 46.23 0 0 1-9.42 1.11z" id="college"/> <path class="brand-green-dark" d="M155.19 40.75c8-2 13-7.47 13-14.22 0-11.64-13.24-13.13-24.77-13.13-5.21 0-10.86.37-15.41.66l-1.79.12v54h12V19l.62-.16a27.28 27.28 0 0 1 5.77-.7c7.59 0 12 3.67 12 10.09 0 6.66-5.32 10.59-14.62 10.84V42l11.35 26.16h13.53L154.15 41zm50.65 25.4h12.75l-17.74-48.44h-14.94l-15 41.38 3.33 7.06h2.54L181 53.36h20.33zM182.92 47.8l8.26-23.73 8.26 23.73zm63.14-10.33c-.71-.3-1.5-.6-2.32-.93-4.87-1.88-10.83-4.16-10.83-9.21 0-3.28 2.72-5.31 7.09-5.31 6.71 0 13.36 4.33 14.57 5.17h.06l.65-8.34a45.34 45.34 0 0 0-14.45-2.25c-8.88 0-18.36 3.79-18.36 14.42 0 8 5.77 11.19 13.31 14.57.74.33 1.51.66 2.28 1 4.85 2 9.86 4.17 9.86 9 0 4.08-2.78 6.42-7.62 6.42-8.15 0-15.75-6.22-17.12-7.39l-.8 9.56a44.61 44.61 0 0 0 16.65 3c12.89 0 19.42-5.29 19.42-15.68 0-8.13-5.37-11.05-12.39-14.03zm63.9-19.76l-13.1 34.34-11.52-34.34h-14.15l-5.21 48.44h8.08l4.09-36.71 13.34 36.71h7.21l14.2-36.84 2.71 36.84h10.5l-3.81-48.44h-12.34zM368 36.72v12a27.69 27.69 0 0 1-.31 3.45c-.71 6.62-5.77 9-9.89 9-7.07 0-10.66-4.27-10.66-12.7V17.71h-11.89v33c0 11.06 6.8 16.42 20.79 16.42 13.21 0 21.09-6.6 21.09-17.67V17.71H367a148.26 148.26 0 0 1 1 19.01zm41.57.75c-.7-.3-1.47-.6-2.27-.9h-.12c-4.79-1.85-10.76-4.14-10.76-9.19 0-3.28 2.72-5.31 7.09-5.31 6.7 0 13.36 4.33 14.57 5.17h.06l.65-8.34a45.35 45.35 0 0 0-14.45-2.25C395.48 16.61 386 20.4 386 31c0 8 5.77 11.19 13.31 14.57.74.33 1.51.66 2.28 1 4.85 2.05 9.86 4.17 9.86 9 0 4.08-2.78 6.42-7.63 6.42-8.16 0-15.75-6.22-17.12-7.39l-.8 9.56a44.59 44.59 0 0 0 16.65 3c12.89 0 19.42-5.29 19.42-15.68.03-8.11-5.38-11.03-12.4-14.01zm42.43 0c-.68-.29-1.43-.58-2.22-.89l-.17-.07c-4.79-1.85-10.75-4.14-10.75-9.18 0-3.28 2.72-5.31 7.09-5.31 6.7 0 13.36 4.33 14.57 5.17h.06l.65-8.34a45.37 45.37 0 0 0-14.46-2.25c-8.87 0-18.36 3.79-18.36 14.42 0 8 5.77 11.19 13.31 14.57.74.33 1.5.66 2.28 1 4.85 2 9.86 4.17 9.86 9 0 4.08-2.78 6.42-7.62 6.42-8.16 0-15.75-6.22-17.12-7.39l-.8 9.56a44.61 44.61 0 0 0 16.65 3c12.89 0 19.42-5.29 19.42-15.68-.02-8.13-5.39-11.05-12.39-14.03zm32.72 23.64V43.38h19.17V38.5h-19.17V22.84H488a82.58 82.58 0 0 1 16.47 1.94v-7.07h-31.62v48.44h32.86V59a73.2 73.2 0 0 1-16.39 2.13zm29.05-43.66v48.7h8.7V28.72l23.14 37.43H558v-48.7h-8.85v35.07l-22.02-35.07h-13.36z" id="rasmussen"/> <g id="crest"> <path class="brand-green-light" d="M3.87 7.35C8 6.24 24.7.38 46.14 0 22.79.39 4.56 7.27.1 8.49-.46 77.2 0 86 43.31 116.76a120.72 120.72 0 0 0-3.77-13.23C3.81 76.67 3.37 68.5 3.87 7.35zm91.58 1.13c-.74-.2-1.92-.58-3.46-1.08 1.25 61.62-.15 69.73-35.77 96.39a115.37 115.37 0 0 0-3.59 13C96.16 86.63 96.85 77.57 95.45 8.48z"/> <path class="brand-green-dark" d="M39.53 103.53a50.26 50.26 0 0 0-3-7.73c3.44.8 6.07 1.69 11.56 1.69s7.75-.84 11.25-1.69a52.67 52.67 0 0 0-3.09 8C91.84 77.14 93.24 69 92 7.41v-.05C88 6.29 70.7 0 48.25 0h-2.1C24.7.38 8 6.24 3.87 7.35c-.5 61.15-.06 69.32 35.66 96.18z"/> <path class="brand-yellow-dark" d="M52 26.42a32.06 32.06 0 0 1-7.83-20.16c-3.83 8.36-6.75 14.93-7.71 17.5-4 10.69-1.34 15.28 3.24 22.37-6.13 6.54-15.07 14.41-13.7 23.62C27.2 78.33 37.1 85 40.9 90.09c0 0-3.75-9.8 6.67-22.88 1.34-1.82 2.51-3.44 3.49-5C57.75 74.22 54.88 83 54.88 83c4.67-6.56 15.85-12.39 17.7-26.51C74.28 43.57 59.8 35.1 52 26.42z"/> <path class="brand-yellow-light" d="M52.84 43c-1.2-2.88-3-5.33-5.73-10.79 0 0 .45 4.91-5.68 12.09-.54.62-1.12 1.27-1.73 1.94 1.46 2.22 3.26 4.61 5.38 7.34a57.51 57.51 0 0 1 6.09 8.69c3.91-6.14 5.15-10.94 1.67-19.27z"/> </g> </g></svg>