<svg id="ras-logo-stacked-white" xmlns="http://www.w3.org/2000/svg" viewBox="0 0 389.91 197.58"><defs><style>.color-white{fill:#fff}.opaque-35{opacity:.35}.opaque-89{opacity:.89}.color-white-opaque-38{fill:#fff;opacity:.38}</style></defs><title>ras-logo-stacked-white</title><g id="Layer_2" data-name="Layer 2"><g id="ras-logo-stacjed-whute"><path class="color-white" d="M87.64 174.91l.26-3.44a53.56 53.56 0 0 0-9.76-1.05c-6.24 0-12.9 3.45-12.9 13.12 0 8.91 4.92 14 13.5 14a21.22 21.22 0 0 0 9.19-1.94v-1a21.78 21.78 0 0 1-5.32.71c-5.78 0-12-3.46-12-13.15 0-6.65 2.71-10.62 7.26-10.62 3.55.03 7.33 1.75 9.77 3.37zm34.3-4.45c-6.78 0-14.71 3.56-14.71 13.58 0 8.22 5.27 13.54 13.41 13.54 6.79 0 14.71-3.56 14.71-13.58 0-8.22-5.26-13.54-13.41-13.54zm.06 25.64c-5.63 0-9.41-5.36-9.41-13.32 0-6.68 3-10.83 7.94-10.83 5.63 0 9.41 5.36 9.41 13.32.06 6.68-3.01 10.83-7.94 10.83zm40-.38v-24.67h-5.12V197h15.8v-2.28a41.39 41.39 0 0 1-8.51 1zm35.94 0v-24.67h-5.12V197h15.81v-2.28a41.4 41.4 0 0 1-8.51 1zm35.99 0v-11.67h10.9v-1.19h-10.9v-10.49h2.7a45.79 45.79 0 0 1 8.55.91v-2.23H228.8V197h17.05v-2.28a41 41 0 0 1-8.5 1zm37-13.49c0-6.67 3-10.66 8.12-10.66 4 0 7.7 2.07 9.6 3.33l.28-3.46a50.84 50.84 0 0 0-9.75-1c-3.18 0-13.54.93-13.54 12.91 0 9 5.06 14.22 13.89 14.22a25.56 25.56 0 0 0 9.5-1.7V185.3h-3.4v10.25l-1 .22a12.3 12.3 0 0 1-2.69.28c-6.39 0-11.01-5.8-11.01-13.82zm45.68 13.49v-11.67h10.9v-1.19h-10.9v-10.49h2.69a45.64 45.64 0 0 1 8.55.92v-2.23h-16.36V197h17.05v-2.28a41.08 41.08 0 0 1-8.5 1z" id="college"/><path class="color-white" d="M26.17 136.5c7.23-1.82 11.72-6.73 11.72-12.83 0-10.52-12-11.86-22.37-11.86-4.7 0-9.81.32-13.91.6L0 112.5v48.73h10.88v-44.41l.56-.14a23.9 23.9 0 0 1 5.2-.64c6.86 0 10.79 3.32 10.79 9.11 0 6-4.8 9.56-13.2 9.79v2.65l10.25 23.63H36.7l-11.47-24.48zm45.74 22.95h11.51l-16-43.74H53.91l-13.59 37.36 3 6.38h2.29l3.89-11.55h18.37zm-20.7-16.57l7.45-21.43 7.46 21.43zm57.02-9.34c-.64-.27-1.35-.53-2.09-.82-4.39-1.69-9.77-3.77-9.77-8.32 0-3 2.45-4.79 6.41-4.79 6.06 0 12.06 3.91 13.16 4.67h.06l.58-7.53a40.89 40.89 0 0 0-13.05-2c-8 0-16.58 3.42-16.58 13 0 7.2 5.21 10.11 12 13.16.66.3 1.36.59 2.06.89 4.38 1.85 8.9 3.76 8.9 8.12 0 3.69-2.5 5.8-6.88 5.8-7.36 0-14.23-5.62-15.46-6.68l-.72 8.63a40.1 40.1 0 0 0 15 2.74c11.64 0 17.54-4.77 17.54-14.16.02-7.38-4.82-10.02-11.16-12.71zm57.7-17.83l-11.84 31.01-10.39-31.01h-12.78l-4.71 43.74h7.3l3.7-33.16 12.03 33.16h6.52l12.82-33.27 2.45 33.27h9.48l-3.44-43.74h-11.14zm52.38 17.17v10.88a25.37 25.37 0 0 1-.28 3.1 8.62 8.62 0 0 1-8.93 8.1c-6.39 0-9.62-3.87-9.62-11.48v-27.77h-10.72v29.78c0 10 6.14 14.82 18.77 14.82 11.93 0 19-6 19-16v-28.6h-9.1a134.63 134.63 0 0 1 .88 17.17zm37.57.66c-.63-.26-1.33-.53-2.05-.81h-.11c-4.33-1.66-9.71-3.74-9.71-8.29 0-3 2.45-4.79 6.41-4.79 6 0 12.06 3.91 13.16 4.67h.05l.59-7.53a40.89 40.89 0 0 0-13.05-2c-8 0-16.58 3.42-16.58 13 0 7.2 5.21 10.11 12 13.16.66.3 1.36.59 2.06.89 4.38 1.85 8.91 3.77 8.91 8.12 0 3.69-2.51 5.8-6.89 5.8-7.37 0-14.22-5.61-15.46-6.68l-.72 8.63a40.1 40.1 0 0 0 15 2.74c11.64 0 17.54-4.77 17.54-14.16.04-7.42-4.82-10.05-11.15-12.75zm38.29.01c-.61-.27-1.29-.53-2-.8l-.16-.07c-4.32-1.66-9.71-3.73-9.71-8.29 0-3 2.45-4.79 6.41-4.79 6 0 12.06 3.91 13.16 4.67h.06l.59-7.53a41 41 0 0 0-13.05-2c-8 0-16.58 3.42-16.58 13 0 7.2 5.21 10.11 12 13.16.67.3 1.36.59 2.06.89 4.37 1.85 8.9 3.76 8.9 8.12 0 3.69-2.51 5.8-6.88 5.8-7.37 0-14.22-5.61-15.46-6.68l-.72 8.63a40.1 40.1 0 0 0 15 2.74c11.64 0 17.54-4.77 17.54-14.16.03-7.37-4.81-10-11.16-12.69zm29.57 21.35v-16H341v-4.42h-17.26v-14.15h3a75.16 75.16 0 0 1 14.87 1.75v-6.36H313v43.74h29.68V153a66.37 66.37 0 0 1-14.8 1.92zm26.23-39.43v43.98h7.86v-33.8l20.89 33.8h11.19v-43.98h-7.99v31.68l-19.88-31.68h-12.07z" id="rasmussen"/><g id="crest"><path class="opaque-35 color-white" d="M235.76 7.48c-.65-.18-1.69-.52-3-1 1.1 54.27-.13 61.41-31.5 84.88a101.8 101.8 0 0 0-3.26 11.46c38.39-26.53 39-34.5 37.76-95.34zm-83.97 0c-.49 60.51-.11 68.3 38.05 95.34a106.07 106.07 0 0 0-3.32-11.65c-31.46-23.65-31.84-30.84-31.4-84.69"/><path class="opaque-89 color-white" d="M232.71 6.52C229.21 5.54 214 0 194.19 0h-1.85c-18.88.33-33.62 5.49-37.22 6.46-.44 53.85-.05 61 31.4 84.69a44.69 44.69 0 0 0-2.67-6.81 36.36 36.36 0 0 0 10.15 1.5 33.58 33.58 0 0 0 9.91-1.48 45.27 45.27 0 0 0-2.72 7c31.39-23.43 32.62-30.57 31.52-84.84zm-17.09 43.19C214 62.15 204.14 67.28 200 73.06c0 0 2.53-7.71-3.36-18.26-.87 1.34-1.89 2.77-3.07 4.37-9.18 11.53-5.88 20.15-5.88 20.15-3.35-4.52-12.06-10.35-13.16-17.91-1.17-8.12 6.7-15.05 12.1-20.8-4-6.24-6.37-10.28-2.85-19.69.84-2.27 3.42-8.06 6.79-15.42a28.26 28.26 0 0 0 6.9 17.76c6.9 7.66 19.64 15.11 18.15 26.45z"/><path class="color-white-opaque-38" d="M198.23 37.83c-1.06-2.54-2.64-4.69-5-9.51 0 0 .39 4.32-5 10.65-.48.55-1 1.12-1.52 1.7 1.29 2 2.87 4.06 4.74 6.47a50.69 50.69 0 0 1 5.36 7.66c3.4-5.37 4.49-9.6 1.42-16.97z"/></g></g></g></svg>