<svg id="ras-logo-stacked" xmlns="http://www.w3.org/2000/svg" viewBox="0 0 387.5 196.36"><defs><style>.brand-green-dark{fill:#004712}.brand-green-light{fill:#527f57}.brand-yellow-dark{fill:#edb21f}.brand-yellow-light{fill:#f8e39a}</style></defs><title>ras-logo-stacked</title><g id="Layer_2" data-name="Layer 2"><g id="ras-logo-stacked"><g id="ras-logo-stacked-2" data-name="ras-logo-stacked"><path class="brand-green-dark" d="M87.1 173.83l.26-3.43a53.6 53.6 0 0 0-9.7-1c-6.2 0-12.82 3.43-12.82 13 0 8.84 4.89 13.92 13.42 13.92a21.15 21.15 0 0 0 9.14-1.92v-1a21.8 21.8 0 0 1-5.29.7c-5.74 0-11.88-3.43-11.88-13.06 0-6.61 2.7-10.55 7.21-10.55a18.89 18.89 0 0 1 9.66 3.34zm34.09-4.42c-6.74 0-14.62 3.54-14.62 13.5 0 8.17 5.23 13.46 13.33 13.46 6.74 0 14.62-3.54 14.62-13.5 0-8.18-5.23-13.46-13.33-13.46zm.09 25.47c-5.6 0-9.35-5.32-9.35-13.23 0-6.64 3-10.77 7.9-10.77 5.6 0 9.35 5.32 9.35 13.23-.01 6.65-3.04 10.77-7.91 10.77zm39.72-.37V170h-5.09v25.79h15.71v-2.27a41.27 41.27 0 0 1-8.45 1zm35.72 0V170h-5.09v25.79h15.71v-2.27a41.31 41.31 0 0 1-8.46 1zm35.76 0v-11.59h10.83v-1.19h-10.83v-10.42h2.68a45.37 45.37 0 0 1 8.49.9V170h-16.26v25.79h16.95v-2.27a40.93 40.93 0 0 1-8.45 1zm36.77-13.4c0-6.63 3-10.6 8.07-10.6 4 0 7.65 2.06 9.54 3.31l.28-3.43a49.92 49.92 0 0 0-9.69-1c-3.16 0-13.46.93-13.46 12.83 0 9 5 14.13 13.8 14.13a25.39 25.39 0 0 0 9.44-1.69v-10.51h-3.38v10.2l-1 .22a12.6 12.6 0 0 1-2.67.28c-6.33-.01-10.93-5.78-10.93-13.74zm45.41 13.4v-11.59h10.83v-1.19h-10.83v-10.42h2.68a45.32 45.32 0 0 1 8.5.91V170h-16.28v25.79h16.95v-2.27a41 41 0 0 1-8.45 1z" id="college"/><path class="brand-green-dark" d="M26 135.66c7.19-1.8 11.66-6.69 11.66-12.76 0-10.45-11.88-11.79-22.23-11.79-4.67 0-9.75.33-13.82.59l-1.61.1v48.42h10.81V116.1l.56-.14a24 24 0 0 1 5.17-.63c6.82 0 10.73 3.3 10.73 9.06 0 6-4.78 9.5-13.12 9.72v2.64l10.19 23.47h12.14l-11.4-24.34zm45.46 22.8H82.9L67 115H53.57l-13.5 37.13 3 6.34h2.28L49.21 147h18.24zM50.9 142l7.41-21.3 7.4 21.3zm56.66-9.28c-.64-.27-1.34-.54-2.08-.83-4.37-1.68-9.71-3.74-9.71-8.26 0-2.94 2.44-4.77 6.37-4.77 6 0 12 3.9 13.08 4.64h.05l.59-7.48a40.54 40.54 0 0 0-13-2c-8 0-16.48 3.4-16.48 12.94 0 7.16 5.18 10 11.95 13.07.66.3 1.35.59 2 .88 4.35 1.84 8.85 3.74 8.85 8.07 0 3.67-2.49 5.76-6.84 5.76-7.31 0-14.14-5.58-15.37-6.63l-.72 8.58a40 40 0 0 0 14.94 2.72c11.57 0 17.43-4.73 17.43-14.07.05-7.34-4.76-9.95-11.06-12.62zM164.9 115l-11.76 30.81L142.81 115h-12.7l-4.67 43.46h7.25l3.67-32.94 11.96 32.94h6.48l12.74-33.06 2.43 33.06h9.43L175.97 115H164.9zm52.1 17.05v10.81a25.31 25.31 0 0 1-.28 3.09 8.57 8.57 0 0 1-8.88 8c-6.34 0-9.56-3.84-9.56-11.4V115h-10.69v29.59c0 9.92 6.1 14.73 18.65 14.73 11.85 0 18.93-5.93 18.93-15.86V115h-9a132.73 132.73 0 0 1 .83 17.05zm37.29.67c-.63-.27-1.32-.53-2-.81h-.11c-4.3-1.66-9.65-3.72-9.65-8.24 0-2.94 2.44-4.77 6.37-4.77 6 0 12 3.89 13.08 4.64h.02l.59-7.48a40.52 40.52 0 0 0-13-2c-8 0-16.48 3.4-16.48 12.94 0 7.16 5.18 10 11.95 13.07.66.3 1.35.59 2 .88 4.35 1.84 8.85 3.74 8.85 8.07 0 3.67-2.49 5.76-6.84 5.76-7.33 0-14.14-5.57-15.37-6.63l-.72 8.58a40 40 0 0 0 15.02 2.66c11.57 0 17.43-4.73 17.43-14.07-.02-7.32-4.84-9.92-11.14-12.6zm38.07 0c-.61-.26-1.29-.52-2-.79l-.15-.06c-4.3-1.66-9.65-3.71-9.65-8.24 0-2.94 2.44-4.77 6.37-4.77 6 0 12 3.89 13.08 4.64h.05l.59-7.48a40.56 40.56 0 0 0-13-2c-8 0-16.48 3.4-16.48 12.94 0 7.16 5.18 10 11.95 13.07.66.3 1.35.59 2 .88 4.35 1.84 8.85 3.74 8.85 8.07 0 3.67-2.49 5.76-6.84 5.76-7.32 0-14.14-5.57-15.37-6.63l-.72 8.58a40 40 0 0 0 14.96 2.7c11.57 0 17.43-4.73 17.43-14.07.04-7.32-4.77-9.92-11.07-12.6zm29.38 21.22V138h17.2v-4.39h-17.2v-14.02h3a74.52 74.52 0 0 1 14.78 1.74V115h-28.4v43.47h29.49V152a65.78 65.78 0 0 1-14.71 1.91zm26.07-39.18v43.7h7.81v-33.59l20.76 33.59h11.12v-43.7h-7.94v31.48l-19.76-31.48h-11.99z" id="rasmussen"/><g id="crest"><path class="brand-green-light" d="M234.3 7.43c-.65-.17-1.68-.51-3-.94 1.09 53.93-.13 61-31.3 84.36a100.3 100.3 0 0 0-3.15 11.34c38.08-26.37 38.68-34.3 37.45-94.76zm-80.15-.99c3.59-1 18.23-6.1 37-6.42-20.44.33-36.4 6.35-40.3 7.41-.49 60.13-.11 67.88 37.81 94.76a105.87 105.87 0 0 0-3.3-11.58C154.1 67.1 153.72 60 154.15 6.44z"/><path class="brand-green-dark" d="M185.37 90.6a44.3 44.3 0 0 0-2.66-6.76 36.3 36.3 0 0 0 10.12 1.47 33.12 33.12 0 0 0 9.85-1.47 45.74 45.74 0 0 0-2.71 7c31.17-23.33 32.4-30.43 31.3-84.36C227.79 5.51 212.64 0 193 0h-1.84c-18.77.32-33.41 5.45-37 6.42-.44 53.58-.06 60.68 31.21 84.18z"/><path class="brand-yellow-dark" d="M196.28 23.13a28.06 28.06 0 0 1-6.86-17.65c-3.36 7.31-5.91 13.07-6.75 15.32-3.49 9.35-1.17 13.37 2.84 19.57-5.36 5.72-13.19 12.61-12 20.67 1.09 7.51 9.75 13.32 13.07 17.8 0 0-3.28-8.57 5.84-20 1.17-1.59 2.19-3 3.06-4.34 5.85 10.48 3.33 18.14 3.33 18.14 4.09-5.74 13.87-10.84 15.49-23.2 1.47-11.31-11.2-18.72-18.02-26.31z"/><path class="brand-yellow-light" d="M197 37.59c-1.05-2.53-2.63-4.66-5-9.45 0 0 .39 4.29-5 10.57-.47.55-1 1.12-1.51 1.69 1.28 2 2.85 4 4.71 6.43a50.63 50.63 0 0 1 5.33 7.61c3.47-5.32 4.52-9.52 1.47-16.85z"/></g></g></g></g></svg>