<svg id="icon-14-power-healing-colored-rst" xmlns="http://www.w3.org/2000/svg" viewBox="0 0 72.07 48.49"><defs><style>.fill-rst-opacity20{fill:#0ebfd6;opacity:.2}</style></defs><title>icon-14-power-healing-colored-rst</title><g id="Layer_2" data-name="Layer 2"><g id="ON_WHITE_BG" data-name="ON WHITE BG"><path class="fill-rst-opacity20" d="M18.15 24.29a1.46 1.46 0 0 1-.4.52l5.6 5.68-1.77-14zM28.9 29.2l3.45-3.46h-2.77l-.68 3.46z"/><path class="fill-rst-opacity20" d="M0 48.48h9.61l14.22-14.21-2.25-17.74-3.43 7.77a1.49 1.49 0 0 1-1.36.89H0"/><path class="fill-rst-opacity20" d="M0 22.2h15.82L21 10.41a1.47 1.47 0 0 1 1.58-.87 1.49 1.49 0 0 1 1.26 1.29l2.2 17.34.85-4.17a1.49 1.49 0 0 1 1.46-1.2h7L58.07 0H0"/><path class="fill-rst-opacity20" d="M.07 22.2h15.81l5.21-11.79a1.47 1.47 0 0 1 1.58-.87 1.49 1.49 0 0 1 1.26 1.29l2.2 17.34L27 24a1.49 1.49 0 0 1 1.46-1.2h29.8a1.49 1.49 0 0 1 0 3H29.65l-2.38 12a1.49 1.49 0 0 1-1.46 1.2h-.05a1.49 1.49 0 0 1-1.43-1.3l-2.68-21.17-3.43 7.77a1.49 1.49 0 0 1-1.36.89H.07v23.3h72V0h-72zm58.77 10.13A2.21 2.21 0 0 1 61 34.54a2.23 2.23 0 0 1 2.24-2.17 3.17 3.17 0 0 1 3.2 3.17c0 1.77-2.41 5-5.44 7.12-3-2.17-5.44-5.35-5.44-7.12a3.2 3.2 0 0 1 3.2-3.2"/><path class="fill-rst-opacity20" d="M72.07.05l-.12 48.44-30.62-.06L27.7 35l1.83-9.29H58.2a1.5 1.5 0 0 0 0-3H28.3A1.5 1.5 0 0 0 26.82 24l-.76 4.32-2.28-17.6a1.29 1.29 0 0 0-1.18-1.19 1.47 1.47 0 0 0-1.58.88l-5.2 11.77H15L0 6.85V0zM58.72 32.4a3.07 3.07 0 0 0-3.16 3.11c0 1.78 2.38 4.94 5.43 7.13 3-2.19 5.41-5.31 5.41-7.09a3.1 3.1 0 0 0-3.2-3.1 2.23 2.23 0 0 0-2.2 2.17 2.22 2.22 0 0 0-2.19-2.22"/></g></g></svg>