<svg id="icon-13-24hr-support-colored-rst" xmlns="http://www.w3.org/2000/svg" viewBox="65 0 55 52"><defs><style>.fill-rst-opacity20{fill:#0ebfd6;opacity:.2}.fill-rst-opacity40{fill:#0ebfd6;opacity:.4}.fill-rst-opacity70{fill:#0ebfd6;opacity:.7}</style></defs><title>icon-13-24hr-support-colored-rst</title><g id="Layer_2" data-name="Layer 2"><g id="ON_WHITE_BG" data-name="ON WHITE BG"><path class="fill-rst-opacity20" d="M94 0v7.29a2.25 2.25 0 1 1-4.5 0V0a25.2 25.2 0 0 0-14.07 5.9l10.85 10.85a10.12 10.12 0 0 1 15.53 7.6l11.85-11.85A25.3 25.3 0 0 0 94 0z"/><path class="fill-rst-opacity40" d="M81.6 25.29a10.12 10.12 0 0 1 4.69-8.54L75.43 5.9A25.25 25.25 0 0 0 66.58 23h6.75a2.25 2.25 0 0 1 0 4.5h-6.75a25.3 25.3 0 0 0 12.49 19.59l11.75-11.75c-4.33-.6-9.22-4.34-9.22-10.05z"/><path class="fill-rst-opacity70" d="M89.48 42.58a2.25 2.25 0 0 1 4.5 0v7.83a25.16 25.16 0 0 0 12-4.22l-8.64-12.47a9.61 9.61 0 0 1-5.62 1.7 9 9 0 0 1-.91-.08L79.07 47.09a25.17 25.17 0 0 0 10.41 3.31z"/><path class="fill-rst-opacity20" d="M97.51 25.36s-2.52 0-.74 1.78l1.29 1.29 3.06-3.06z"/><path class="fill-rst-opacity40" d="M121.79 25.36h-4.69v-.16a25.18 25.18 0 0 0-3.43-12.71l-11.86 11.86v1.01h-.73l-3.06 3.06 9.8 9.78a2.47 2.47 0 0 0 3.56 0l11.09-11.07s1.83-1.77-.68-1.77z"/></g></g></svg>