<svg id="icon-01-online-class-colored-rst" xmlns="http://www.w3.org/2000/svg" viewBox="0 0 78.67 49.17"><defs><style>.fill-rst-opacity20{fill:#02bed6;opacity:.2}</style></defs><title>icon-01-online-class-colored-rst</title><g id="Layer_2" data-name="Layer 2"><g id="ON_WHITE_BG" data-name="ON WHITE BG"><path class="fill-rst-opacity20" d="M31.52 30.78l1.71-1.39-.63-4.75-2.52 2.53-.3 2.22 1.74 1.39z"/><path class="fill-rst-opacity20" d="M72.11 42.61V3.93A3.93 3.93 0 0 0 68.18 0H57.25L37.73 19.52a4.13 4.13 0 0 1 .79.66L46 27.7a3 3 0 0 1 .31.38h6.46a2.46 2.46 0 0 1 1.56.57l7.06-4.48a.8.8 0 1 1 .86 1.36L55.22 30a2.45 2.45 0 0 1 .07.55A2.49 2.49 0 0 1 52.81 33H44a2.45 2.45 0 0 1-1-.21 3 3 0 0 1-1.37-.78l-2.12-2.12v5.81H23.44v-1.9L8.08 49.17h66.65a3.93 3.93 0 0 0 3.93-3.93v-2.63zm-27.86 2.28h-9.83c-.91 0-2.49-1.37-2.49-2.28h14.61a3 3 0 0 1-2.29 2.28z"/><path class="fill-rst-opacity20" d="M72.11 42.61V3.93A3.93 3.93 0 0 0 68.18 0H10.49a3.93 3.93 0 0 0-3.93 3.93v3l16.88 16.84v-.91a4 4 0 0 1 4-4h1.78L31 20.57l-1.18 8.83 1.74 1.38 1.71-1.38-1.16-8.8 1.7-1.75h1.78a4 4 0 0 1 3 1.34L46 27.7a3 3 0 0 1 .31.38h6.46a2.46 2.46 0 0 1 1.56.57l7.06-4.48a.8.8 0 1 1 .86 1.36L55.22 30a2.45 2.45 0 0 1 .07.55A2.49 2.49 0 0 1 52.81 33H44a2.45 2.45 0 0 1-1-.21 3 3 0 0 1-1.37-.78l-2.12-2.12v5.81h-4.14l6.91 6.91h4.26a3 3 0 0 1-2 2.23l4.32 4.32h25.9a3.93 3.93 0 0 0 3.93-3.93v-2.62zM31.5 17.35a5.26 5.26 0 1 1 5.26-5.26 5.26 5.26 0 0 1-5.26 5.26z"/><path class="fill-rst-opacity20" d="M72.11 42.61V3.93A3.93 3.93 0 0 0 68.18 0H10.49a3.93 3.93 0 0 0-3.93 3.93v38.68H0v2.62a3.93 3.93 0 0 0 3.93 3.93h70.8a3.93 3.93 0 0 0 3.93-3.93v-2.62zm-27.86 2.28h-9.83c-.91 0-2.49-1.37-2.49-2.28h14.61a3 3 0 0 1-2.29 2.28zm-7.49-32.8a5.26 5.26 0 1 1-5.26-5.27 5.26 5.26 0 0 1 5.26 5.26zm2.8 23.62H23.44V22.86a4 4 0 0 1 4-4h1.78L31 20.57l-1.18 8.83 1.74 1.38 1.71-1.38-1.16-8.8 1.7-1.75h1.78a4 4 0 0 1 3 1.34L46 27.7a3 3 0 0 1 .31.38h6.46a2.46 2.46 0 0 1 1.56.57l7.06-4.48a.8.8 0 1 1 .86 1.36L55.22 30a2.45 2.45 0 0 1 .07.55A2.49 2.49 0 0 1 52.81 33H44a2.45 2.45 0 0 1-1-.21 3 3 0 0 1-1.37-.78l-2.12-2.12z"/></g></g></svg>