<svg id="icon-19-cost-savings-white-rst" xmlns="http://www.w3.org/2000/svg" viewBox="0 0 60 49.99"><defs><style>.fill-white-opacity20{fill:#fff;opacity:.2}.fill-white-opacity40{fill:#fff;opacity:.4}.fill-white-opacity70{fill:#fff;opacity:.7}</style></defs><title>icon-19-cost-savings-white-rst</title><g id="Layer_2" data-name="Layer 2"><g id="ON_MEDIUM_BG" data-name="ON MEDIUM BG"><path class="fill-white-opacity20" d="M46.86 8.14C42.92 5.31 37.66 4 32 4c-1.52 0-3 .06-4.31.17-1.92-2.51-6.23-4.17-9-4.17S16 1.1 16 2.84v4.62a17.4 17.4 0 0 0-2.08 1.46L30 25z"/><path class="fill-white-opacity40" d="M55.24 24.6a5.76 5.76 0 0 0 2.28 1.2c2.89.94 2.87-.81 1.77-1.41a8.81 8.81 0 0 1-1.69-1.15 5.34 5.34 0 0 0 2.4-3.89 3.34 3.34 0 0 0-2.81-3.21 4.52 4.52 0 0 0-1.13-.14 3.49 3.49 0 0 0-2.87 1.38 16.17 16.17 0 0 0-6.33-9.24L30 25l17.87 17.86c0-2.33.31-4.79 1.17-6l.27-.3.1-.1A19 19 0 0 0 53.95 25c.44-.1.9-.23 1.29-.4zM13.92 8.92a17.31 17.31 0 0 0-4.1 4.88 10.09 10.09 0 0 1-3.41 3.92C3.31 19.43 0 18.4 0 21.54v8.11c0 2.64 1.59 1.9 4.69 3.33 2.11 1 3.57 5.1 8.84 7.17l.71.27.21.1L30 25z"/><path class="fill-white-opacity70" d="M14.46 40.53c2.21 1.08 1.68 4.55 1.56 6.9A2.44 2.44 0 0 0 18.47 50h5.36a2.46 2.46 0 0 0 2.29-1.63c.65-1.81 1.89-4.5 3.45-4.5.83.08 1.59.13 2.2.13a27.38 27.38 0 0 0 3.61-.26c2.09-.36 2.66 3.08 3.32 4.7A2.44 2.44 0 0 0 41 50h4.56A2.43 2.43 0 0 0 48 47.43c0-1-.15-2.74-.11-4.57L30 25z"/></g></g></svg>