<svg id="icon-11-career-advance-colored-rst" xmlns="http://www.w3.org/2000/svg" viewBox="0 0 85.88 48.76"><defs><style>.fill-rst-opacity20{fill:#0ebfd6;opacity:.2}</style></defs><title>icon-11-career-advance-colored-rst</title><g id="Layer_2" data-name="Layer 2"><g id="ON_WHITE_BG" data-name="ON WHITE BG"><path class="fill-rst-opacity20" d="M85 22.26L63.42.67C62.25-.5 61.3-.1 61.3 1.55v5.57h-27c2.09 1.09 9.41 3.33 13.55 8.64C39.86 11.6 26 9.26 14.93 13 24 13.69 31.5 14 37 20.77a42 42 0 0 0-13.5-2.65C16.13 18 8.65 23.53 0 19.27c4.19 5.87 10.53 5.21 17.61 5.73 8.25.65 9.21 3.73 20.64 4.73-14.12 6.88-15.77-3.08-29.94 4.58 13.83-1.17 17.19 7.29 32.08 7.29H61.3v5.57c0 1.65 1 2 2.12.88L85 26.5a3 3 0 0 0 0-4.24z"/><path class="fill-rst-opacity20" d="M85 22.26L74.38 11.64l-30 30H61.3v5.57c0 1.65 1 2 2.12.88L85 26.5a3 3 0 0 0 0-4.24z"/><path class="fill-rst-opacity20" d="M85 22.26L63.42.67C62.25-.5 61.3-.1 61.3 1.55v5.57h-27c2.09 1.09 9.41 3.33 13.55 8.64A44.22 44.22 0 0 0 33 11.49L66.53 45 85 26.5a3 3 0 0 0 0-4.24z"/></g></g></svg>