<svg id="icon-17-pro-skillset-colored-rst" xmlns="http://www.w3.org/2000/svg" viewBox="0 0 58.77 40.21"><defs><style>.fill-white-opacity20{fill:#fff;opacity:.2}.fill-white-opacity40{fill:#fff;opacity:.4}.fill-white-opacity70{fill:#fff;opacity:.7}</style></defs><title>icon-17-pro-skillset-white-rst</title><g id="Layer_2" data-name="Layer 2"><g id="ON_MEDIUM_BG" data-name="ON MEDIUM BG"><path class="fill-white-opacity20" d="M31.45 23.33c-1.38-.21-3.61-1.2-3.61-3.1V9.28h-13l15.32 15.34z"/><path class="fill-white-opacity40" d="M36 21.27c-.92 0-1.16.4-1.82 1.09a3.18 3.18 0 0 1-2.21 1h-.51l-1.29 1.29.13.13 1.39 1.39h.28a3.17 3.17 0 0 1 2.21 1c.66.68.9 1.09 1.82 1.09 1.09 0 2.67-1.24 2.67-3.48s-1.59-3.51-2.67-3.51zM14.82 9.28H0v10.94c0 2 1.55 2.57 2.8 1.31a3.26 3.26 0 0 1 2.65-1.43c1.68 0 3.83 1.71 3.83 4.64s-2.15 4.64-3.83 4.64A3.26 3.26 0 0 1 2.8 28C1.55 26.7 0 27.23 0 29.27v10.94h14.56L30 24.75l.13-.13z"/><path class="fill-white-opacity70" d="M30.29 24.75l-.13-.13-.13.13-15.47 15.46h13.28V29.27c0-1.9 2.23-2.89 3.61-3.1h.23z"/><path class="fill-white-opacity20" d="M43.31 0c-3.7 0-6.19 2.78-6.19 5.38a4.44 4.44 0 0 0 1.64 3.51l.23.22.12.13a1.83 1.83 0 0 1-.33 0h-7.07a1.55 1.55 0 0 0-1.55 1.55v7.85A2.27 2.27 0 0 0 31.33 21c1.17.47 2-.44 2.56-1a2.54 2.54 0 0 1 1.93-1l2.58-2.58a6.46 6.46 0 0 0-2.4-.53 5.51 5.51 0 0 0-2.74.68v-4.2h5.53a3.38 3.38 0 0 0 3.32-1.9 3.27 3.27 0 0 0-.93-3.55l-.3-.29c-.48-.46-.67-.62-.67-1.26a2.87 2.87 0 0 1 3.09-2.29 2.87 2.87 0 0 1 3.1 2.3c0 .63-.18.8-.67 1.25l-.31.29a3.3 3.3 0 0 0-1 3.39l5-5C49.43 2.72 47 0 43.31 0z"/><path class="fill-white-opacity40" d="M57.23 9.28h-9.4a1.79 1.79 0 0 1-.34 0l.12-.14.23-.22a4.46 4.46 0 0 0 1.63-3.34v-.26l-5 5c0 .05 0 .11.05.16a3.39 3.39 0 0 0 3.31 1.86h7.85v24.78h-13l3.09 3.09h11.46a1.55 1.55 0 0 0 1.55-1.55V10.83a1.55 1.55 0 0 0-1.55-1.55z"/><path class="fill-white-opacity40" d="M38.58 16.45l-.19-.07L35.82 19h.26a5.87 5.87 0 0 1 0 11.59l2.5 2.5a9 9 0 0 0 0-16.59z"/><path class="fill-white-opacity70" d="M42.66 37.12h-9.41V33a5.5 5.5 0 0 0 2.74.68 6.46 6.46 0 0 0 2.4-.53l.19-.07-2.5-2.5h-.26a2.58 2.58 0 0 1-1.94-1c-.52-.54-1.39-1.45-2.55-1a2.27 2.27 0 0 0-1.17 2.3v7.85a1.55 1.55 0 0 0 1.55 1.55h14z"/></g></g></svg>