<svg id="icon-17-pro-skillset-white-rsb" xmlns="http://www.w3.org/2000/svg" viewBox="0 0 58.77 40.21"><defs><style>.fill-white-opacity20{fill:#fff;opacity:.2}.fill-white-opacity40{fill:#fff;opacity:.4}.fill-white-opacity70{fill:#fff;opacity:.7}.fill-empty{fill:none}</style></defs><title>icon-17-pro-skillset-white-rsb</title><g id="Layer_2" data-name="Layer 2"><g id="ON_MEDIUM_BG" data-name="ON MEDIUM BG"><g id="icon-17-pro-skillset-white-rsb"><path class="fill-white-opacity20" d="M31.45 23.33c-1.38-.21-3.61-1.2-3.61-3.1V9.28h-13l15.32 15.34z"/><path class="fill-white-opacity20" d="M31.45 23.33c-1.38-.21-3.61-1.2-3.61-3.1V9.28h-13l15.32 15.34z"/><path class="fill-white-opacity40" d="M30.16 24.62l.13.13 1.39-1.39h-.23z"/><path class="fill-white-opacity20" d="M30.16 24.62l.13.13 1.39-1.39h-.23z"/><path class="fill-white-opacity40" d="M31.68 26.14h.28a3.17 3.17 0 0 1 2.21 1c.66.68.9 1.09 1.82 1.09 1.09 0 2.67-1.24 2.67-3.48s-1.58-3.48-2.66-3.48c-.92 0-1.16.4-1.82 1.09a3.18 3.18 0 0 1-2.21 1h-.28l-1.39 1.39z"/><path class="fill-white-opacity40" d="M31.68 26.14h.28a3.17 3.17 0 0 1 2.21 1c.66.68.9 1.09 1.82 1.09 1.09 0 2.67-1.24 2.67-3.48s-1.58-3.48-2.66-3.48c-.92 0-1.16.4-1.82 1.09a3.18 3.18 0 0 1-2.21 1h-.28l-1.39 1.39z"/><path class="fill-white-opacity20" d="M30.16 24.62L14.82 9.28h-.26l15.47 15.47.13-.13z"/><path class="fill-white-opacity40" d="M30.16 24.62L14.82 9.28h-.26l15.47 15.47.13-.13z"/><path class="fill-white-opacity40" transform="rotate(-45 30.152 24.75)" d="M30.07 24.65h.18v.18h-.18z"/><path class="fill-white-opacity40" transform="rotate(-45 30.152 24.75)" d="M30.07 24.65h.18v.18h-.18z"/><path class="fill-white-opacity40" d="M14.56 9.28H0v10.94c0 2 1.55 2.57 2.8 1.31a3.26 3.26 0 0 1 2.65-1.43c1.68 0 3.83 1.71 3.83 4.64s-2.15 4.64-3.83 4.64A3.26 3.26 0 0 1 2.8 28C1.55 26.7 0 27.23 0 29.27v10.94h14.56L30 24.75z"/><path class="fill-white-opacity40" d="M14.56 9.28H0v10.94c0 2 1.55 2.57 2.8 1.31a3.26 3.26 0 0 1 2.65-1.43c1.68 0 3.83 1.71 3.83 4.64s-2.15 4.64-3.83 4.64A3.26 3.26 0 0 1 2.8 28C1.55 26.7 0 27.23 0 29.27v10.94h14.56L30 24.75z"/><path class="fill-white-opacity70" d="M30.03 24.75L14.56 40.21h.26l15.34-15.33-.13-.13z"/><path class="fill-white-opacity40" d="M30.03 24.75L14.56 40.21h.26l15.34-15.33-.13-.13zm.13.13l1.29 1.29h.23l-1.39-1.39z"/><path class="fill-white-opacity70" d="M30.16 24.88l1.29 1.29h.23l-1.39-1.39zM14.82 40.21h13V29.27c0-1.9 2.23-2.89 3.61-3.1l-1.29-1.29z"/><path class="fill-white-opacity70" d="M14.82 40.21h13V29.27c0-1.9 2.23-2.89 3.61-3.1l-1.29-1.29z"/><path class="fill-empty" d="M55.68 37.12V12.37h-7.85a3.39 3.39 0 0 1-3.31-1.86c0-.05 0-.11-.05-.16a3.3 3.3 0 0 1 1-3.39l.31-.29c.49-.45.67-.62.67-1.25a2.87 2.87 0 0 0-3.09-2.29 2.87 2.87 0 0 0-3.09 2.29c0 .63.18.8.67 1.26l.3.29a3.27 3.27 0 0 1 .93 3.55 3.38 3.38 0 0 1-3.32 1.9h-5.6v4.16a5.51 5.51 0 0 1 2.75-.73 6.46 6.46 0 0 1 2.4.53l.19.07a9 9 0 0 1 0 16.59l-.19.07a6.46 6.46 0 0 1-2.4.53 5.5 5.5 0 0 1-2.75-.64v4.16h22.43z"/><path class="fill-white-opacity20" d="M36 15.85a5.51 5.51 0 0 0-2.74.68v-4.16h5.53a3.38 3.38 0 0 0 3.32-1.9 3.27 3.27 0 0 0-.93-3.55l-.3-.29c-.48-.46-.67-.62-.67-1.26a2.87 2.87 0 0 1 3.09-2.29 2.87 2.87 0 0 1 3.1 2.3c0 .63-.18.8-.67 1.25l-.31.29a3.3 3.3 0 0 0-1 3.39l5-5C49.43 2.72 47 0 43.31 0s-6.19 2.78-6.19 5.38a4.44 4.44 0 0 0 1.64 3.51l.23.22.12.13a1.83 1.83 0 0 1-.33 0h-7.07a1.55 1.55 0 0 0-1.55 1.55v7.85A2.27 2.27 0 0 0 31.33 21c1.17.47 2-.44 2.56-1a2.54 2.54 0 0 1 1.93-1l2.58-2.58a6.46 6.46 0 0 0-2.4-.57z"/><path class="fill-white-opacity20" d="M36 15.85a5.51 5.51 0 0 0-2.74.68v-4.16h5.53a3.38 3.38 0 0 0 3.32-1.9 3.27 3.27 0 0 0-.93-3.55l-.3-.29c-.48-.46-.67-.62-.67-1.26a2.87 2.87 0 0 1 3.09-2.29 2.87 2.87 0 0 1 3.1 2.3c0 .63-.18.8-.67 1.25l-.31.29a3.3 3.3 0 0 0-1 3.39l5-5C49.43 2.72 47 0 43.31 0s-6.19 2.78-6.19 5.38a4.44 4.44 0 0 0 1.64 3.51l.23.22.12.13a1.83 1.83 0 0 1-.33 0h-7.07a1.55 1.55 0 0 0-1.55 1.55v7.85A2.27 2.27 0 0 0 31.33 21c1.17.47 2-.44 2.56-1a2.54 2.54 0 0 1 1.93-1l2.58-2.58a6.46 6.46 0 0 0-2.4-.57z"/><path class="fill-white-opacity40" d="M38.4 16.38L35.82 19h.26l2.5-2.5z"/><path class="fill-white-opacity20" d="M38.4 16.38L35.82 19h.26l2.5-2.5z"/><path class="fill-white-opacity40" d="M44.51 10.48l5-5v-.26l-5 5c-.04.15-.03.21 0 .26z"/><path class="fill-white-opacity20" d="M44.51 10.48l5-5v-.26l-5 5c-.04.15-.03.21 0 .26z"/><path class="fill-white-opacity40" d="M47.83 12.37h7.85v24.75h-13l3.09 3.09h11.46a1.55 1.55 0 0 0 1.55-1.55V10.83a1.55 1.55 0 0 0-1.55-1.55h-9.4a1.79 1.79 0 0 1-.34 0l.12-.14.23-.22a4.46 4.46 0 0 0 1.63-3.34l-5 5a3.39 3.39 0 0 0 3.36 1.79z"/><path class="fill-white-opacity40" d="M47.83 12.37h7.85v24.75h-13l3.09 3.09h11.46a1.55 1.55 0 0 0 1.55-1.55V10.83a1.55 1.55 0 0 0-1.55-1.55h-9.4a1.79 1.79 0 0 1-.34 0l.12-.14.23-.22a4.46 4.46 0 0 0 1.63-3.34l-5 5a3.39 3.39 0 0 0 3.36 1.79z"/><path class="fill-white-opacity40" d="M44.08 24.75a9.16 9.16 0 0 0-5.5-8.29L36.08 19a5.87 5.87 0 0 1 0 11.59l2.5 2.5a9.16 9.16 0 0 0 5.5-8.34z"/><path class="fill-white-opacity40" d="M44.08 24.75a9.16 9.16 0 0 0-5.5-8.29L36.08 19a5.87 5.87 0 0 1 0 11.59l2.5 2.5a9.16 9.16 0 0 0 5.5-8.34zM42.4 37.12l3.1 3.09h.26l-3.1-3.09h-.26z"/><path class="fill-white-opacity70" d="M42.4 37.12l3.1 3.09h.26l-3.1-3.09h-.26z"/><path class="fill-white-opacity40" d="M38.58 33l-2.5-2.5h-.26l2.58 2.58z"/><path class="fill-white-opacity70" d="M38.58 33l-2.5-2.5h-.26l2.58 2.58zm-6.87 7.21H45.5l-3.1-3.09h-9.15V33a5.5 5.5 0 0 0 2.74.68 6.46 6.46 0 0 0 2.4-.53l-2.58-2.58a2.58 2.58 0 0 1-1.94-1c-.52-.54-1.39-1.45-2.55-1a2.27 2.27 0 0 0-1.17 2.3v7.85a1.55 1.55 0 0 0 1.56 1.49z"/><path class="fill-white-opacity70" d="M31.71 40.21H45.5l-3.1-3.09h-9.15V33a5.5 5.5 0 0 0 2.74.68 6.46 6.46 0 0 0 2.4-.53l-2.58-2.58a2.58 2.58 0 0 1-1.94-1c-.52-.54-1.39-1.45-2.55-1a2.27 2.27 0 0 0-1.17 2.3v7.85a1.55 1.55 0 0 0 1.56 1.49z"/></g></g></g></svg>