<svg id="icon-05-flexchoice-colored-rsb" xmlns="http://www.w3.org/2000/svg" viewBox="0 0 43.65 49"><defs><style>.opacity20{opacity:.2}.fill-rsb{fill:#c3002f}.fill-empty-stroke10-rsb{fill:none;stroke:#00aeef;stroke-miterlimit:10;stroke-width:3px}.fill-rsb-opacity20{fill:#c3002f;opacity:.2}</style></defs><title>icon-05-flexchoice-colored-rsb</title><g id="Layer_2" data-name="Layer 2"><g id="ON_WHITE_BG" data-name="ON WHITE BG"><g id="icon-05-flexchoice-colored-rsb"><path class="opacity20 fill-rsb" d="M23.73 30.3l-1 .27a3.51 3.51 0 0 1-4.08-5.3L5.79 12.36A21.82 21.82 0 0 0 36.63 43.2z"/><path class="fill-rsb-opacity20" d="M43.65 26.24a21.81 21.81 0 0 0-.93-5.45l-3 3a18.24 18.24 0 0 1 .28 2.77h-2c0-.34-.05-.67-.09-1L15.46 48a21.83 21.83 0 0 0 28-18c.2-2.12.19-3.76.19-3.76z"/><path class="fill-rsb-opacity20" d="M43.65 26.24a21.66 21.66 0 0 0-3.82-11.41l.08-.07 1.7-1.7a3.13 3.13 0 0 0-4.41-4.42l-1.6 1.6A21.69 21.69 0 0 0 25 5.57V3a3 3 0 0 0-3-3h-.3a3 3 0 0 0-3 3v2.58A21.82 21.82 0 1 0 43.49 30c.17-2.12.16-3.76.16-3.76zm-12.8-14.77A21.58 21.58 0 0 1 34 13.7L32.43 15A30.74 30.74 0 0 0 30 13zm-3.46-1.56a17.51 17.51 0 0 1 2.44 1L29 12.36A13.33 13.33 0 0 0 27 11zm-4.05-.81a17.79 17.79 0 0 1 3 .51l-.31.94a10.3 10.3 0 0 0-2.71-1zm-.58 21.46a3.52 3.52 0 1 1-.08-6.62l12.11 3.33zm10.47-14.84l1.56-1.3a19.33 19.33 0 0 1 3.15 4.32l-1.85.8a16.31 16.31 0 0 0-2.86-3.82zM38 26.56a16.15 16.15 0 0 0-1.41-6l1.86-.74A18.16 18.16 0 0 1 40 26.56z"/></g></g></g></svg>