<svg id="icon-07-time-complete-colored-rsb" xmlns="http://www.w3.org/2000/svg" viewBox="0 0 85.78 49.17"><defs><style>.fill-rsb-opacity20{fill:#c3002f;opacity:.2}.opacity20{opacity:.2}.fill-rsb{fill:#c3002f}</style></defs><title>icon-07-time-complete-colored-rsb</title><g id="Layer_2" data-name="Layer 2"><g id="ON_WHITE_BG" data-name="ON WHITE BG"><g id="icon-07-time-complete-colored-rsb"><path class="fill-rsb-opacity20" d="M69.92 6.8C60.12-1.72 50.76.18 50.76.18l-1.3 3.75-14.51 42a2.45 2.45 0 0 0 4.63 1.6l9-26.11c17 1.35 18.32 9.44 26.34 10.5 0 0 1.28-.79 4.27-7.93a25.11 25.11 0 0 1 6.57-9C78 13.63 74.21 10.53 69.92 6.8z"/><path class="fill-rsb-opacity20" d="M50.83 45.92l-14.51-42L35 .18s-9.33-1.9-19.14 6.62C11.57 10.53 7.78 13.63 0 15a25.11 25.11 0 0 1 6.57 9c3 7.14 4.27 7.93 4.27 7.93 8-1.06 9.39-9.15 26.34-10.5l9 26.11a2.45 2.45 0 0 0 4.63-1.6z"/><path class="opacity20 fill-rsb" d="M79.21 24a25.11 25.11 0 0 1 6.57-9C78 13.63 74.21 10.53 69.92 6.8 61.62-.41 53.7-.15 51.45.09L78 26.67c.39-.78.78-1.67 1.21-2.67z"/><path class="fill-rsb-opacity20" d="M69.92 6.8C60.12-1.72 50.76.18 50.76.18l-1.3 3.75-14.51 42a2.45 2.45 0 0 0 4.63 1.6l9-26.11c7.89.58 12.42 2.7 15.76 4.86l13.71-13.72a36.49 36.49 0 0 1-8.13-5.76z"/><path class="fill-rsb-opacity20" d="M37.18 21.42L45 44.07l4.72 4.72a2.42 2.42 0 0 0 1.1-2.87l-14.51-42L35 .18s-9.33-1.9-19.14 6.62a55.72 55.72 0 0 1-4.5 3.61l13.82 13.82a35.55 35.55 0 0 1 12-2.81z"/><path class="fill-rsb-opacity20" d="M36.32 3.93L35 .18s-9.33-1.9-19.14 6.62C11.57 10.53 7.78 13.63 0 15a25.11 25.11 0 0 1 6.57 9c2 4.8 3.23 6.7 3.83 7.45L36.73 5.11z"/></g></g></g></svg>