<svg id="icon-12-job-outcomes-colored-rsb" xmlns="http://www.w3.org/2000/svg" viewBox="0 0 73.99 49.32"><defs><style>.fill-rsb-opacity20{fill:#c3002f;opacity:.2}</style></defs><title>icon-12-job-outcomes-colored-rsb</title><g id="Layer_2" data-name="Layer 2"><g id="ON_WHITE_BG" data-name="ON WHITE BG"><g id="icon-12-job-outcomes-colored-rsb"><path class="fill-rsb-opacity20" d="M37 3.31a24.66 24.66 0 0 0-25.16.29l13.89 13.88A24.72 24.72 0 0 1 37 3.31zm37 21.35A24.66 24.66 0 0 0 37 3.31a24.66 24.66 0 0 1 8.74 34.18L56.5 48.26A24.67 24.67 0 0 0 74 24.66z"/><path class="fill-rsb-opacity20" d="M24.66 24.66A24.65 24.65 0 0 1 37 3.31a24.66 24.66 0 0 0-25.7 42.07l14.23-14.24a24.68 24.68 0 0 1-.87-6.48zm20.72-13.37L55.81.87A24.65 24.65 0 0 0 37 3.31a24.78 24.78 0 0 1 8.38 7.98z"/><path class="fill-rsb-opacity20" d="M49.32 24.66A24.65 24.65 0 0 0 37 3.31a24.72 24.72 0 0 0-11.27 14.17l4.15 4.15h4.62v-5.37h5v5.38h5.38v5h-5.39v4.62l6.24 6.24a24.55 24.55 0 0 0 3.59-12.84z"/><path class="fill-rsb-opacity20" d="M29.12 21.63h5.37v-5.37h5v.92l5.89-5.89a24.78 24.78 0 0 0-8.39-8 24.66 24.66 0 0 0-11.46 27.85L30 26.63h-.92z"/><path class="fill-rsb-opacity20" d="M29.12 21.63h5.37v-5.37h5v.92l5.89-5.89a24.78 24.78 0 0 0-8.39-8 24.66 24.66 0 0 0-11.46 27.85L30 26.63h-.92z"/><path class="fill-rsb-opacity20" d="M24.66 0a24.66 24.66 0 1 0 24.66 24.66A24.66 24.66 0 0 0 24.66 0zm14.83 26.63V32h-5v-5.37h-5.37v-5h5.37v-5.37h5v5.38h5.38v5z"/><path class="fill-rsb-opacity20" d="M49.32 0A24.66 24.66 0 1 0 74 24.66 24.66 24.66 0 0 0 49.32 0zm-4.45 26.63h-5.38V32h-5v-5.37h-5.37v-5h5.37v-5.37h5v5.38h5.38z"/><path class="fill-rsb-opacity20" d="M49.32 24.66A24.65 24.65 0 0 0 37 3.31a24.72 24.72 0 0 0-11.27 14.17l4.15 4.15h4.62v-5.37h5v5.38h5.38v5h-5.39v4.62l6.24 6.24a24.55 24.55 0 0 0 3.59-12.84z"/></g></g></g></svg>