<svg id="icon-21-quotes-colored-rsb" xmlns="http://www.w3.org/2000/svg" viewBox="0 0 59.26 63.25"> <defs> <style>.fill-rsb-opacity10{fill: #c3002f; opacity: 0.1;}.fill-rsb-opacity70{fill: #c3002f; opacity: 0.7;}.fill-rsb-opacity50{fill: #c3002f; opacity: 0.5;}</style> </defs> <title>icon-21-quotes-colored-rsb</title> <g id="Layer_2" data-name="Layer 2"> <g id="ON_WHITE_BG" data-name="ON WHITE BG"> <g id="icon-21-quotes-colored-rsb"> <path class="fill-rsb-opacity10" d="M29.63,0A29.63,29.63,0,0,0,6.91,48.65l-2,14.6,17.42-4.9A29.63,29.63,0,1,0,29.63,0Z"/> <g id="quotes"> <polygon class="fill-rsb-opacity70" points="21.5 27.6 21.66 27.29 18.72 24.35 16.96 27.13 16.96 35.46 23.77 35.46 23.77 29.41 21.97 27.6 21.5 27.6"/> <polygon class="fill-rsb-opacity70" points="13.6 27.6 11.32 27.6 14.02 22.3 10.95 20.55 6.78 27.13 6.78 35.46 13.6 35.46 13.6 27.6"/> <polygon class="fill-rsb-opacity50" points="21.12 20.55 18.72 24.34 18.72 24.35 21.66 27.29 21.66 27.29 24.2 22.3 21.12 20.55"/> <polygon class="fill-rsb-opacity50" points="21.98 27.6 21.97 27.6 23.77 29.41 23.77 29.39 23.77 27.6 21.98 27.6"/> <polygon class="fill-rsb-opacity70" points="52.48 27.79 45.67 27.79 45.67 35.65 47.94 35.65 45.24 40.95 48.32 42.7 52.48 36.12 52.48 27.79"/> <polygon class="fill-rsb-opacity70" points="37.76 35.65 37.67 35.82 40.62 38.78 42.3 36.12 42.3 27.79 35.49 27.79 35.49 33.64 37.49 35.65 37.76 35.65"/> <polygon class="fill-rsb-opacity50" points="37.67 35.82 37.65 35.86 35.06 40.95 38.14 42.7 40.6 38.81 40.62 38.78 37.67 35.82"/> <polygon class="fill-rsb-opacity50" points="35.49 33.64 35.49 33.7 35.49 35.65 37.44 35.65 37.49 35.65 35.49 33.64"/> </g> </g> </g> </g></svg>