<svg id="icon-09-faculty-white-rsn" xmlns="http://www.w3.org/2000/svg" viewBox="0 0 80.18 49.34"> <defs> <style>.fill-white-opacity20{fill: #fff; opacity: .2;}.fill-white-opacity30{fill: #fff; opacity: .3;}</style> </defs> <title>icon-09-faculty-white-rsn</title> <g id="Layer_2" data-name="Layer 2"> <g id="ON_MEDIUM_BG" data-name="ON MEDIUM BG"> <g id="icon-09-faculty-white-rsn"> <path id="user-3" class="fill-white-opacity20" d="M0 49.34h49.33v-1.42c0-3.16-.41-6.82-6.53-8.23s-13.52-5-11.34-9.71c1.41 2.31 5.76 3.65 9.15 1.65-9.76-2.48 4.8-19.47-8-29a13.42 13.42 0 0 0-8-2.64 13 13 0 0 0-7.94 2.64c-12.76 9.53 1.8 26.52-8 29 3.39 2 7.75.6 9.15-1.65 2.19 4.7-5.24 8.31-11.34 9.71S0 44.76 0 47.92"/> <path id="user-3-2" data-name="user-3" class="fill-white-opacity30" d="M0 49.34h49.33v-1.42c0-3.16-.41-6.82-6.53-8.23s-13.52-5-11.34-9.71c1.41 2.31 5.76 3.65 9.15 1.65-9.76-2.48 4.8-19.47-8-29a13.42 13.42 0 0 0-8-2.64 13 13 0 0 0-7.94 2.64c-12.76 9.53 1.8 26.52-8 29 3.39 2 7.75.6 9.15-1.65 2.19 4.7-5.24 8.31-11.34 9.71S0 44.76 0 47.92"/> <path id="user-14" class="fill-white-opacity20" d="M73.64 37.2c-7.07-1.63-13.64-3.06-10.46-9.08C72.88 9.8 65.75 0 55.51 0c-10.45 0-17.4 10.17-7.67 28.12 3.28 6.05-3.55 7.48-10.46 9.08-6.12 1.41-6.53 4.41-6.53 9.59v2.55H52.4l1.45-6.17h3.32l1.45 6.17h21.55v-2.55c.01-5.18-.4-8.17-6.53-9.59zm-16.92 3.92h-2.39L52.46 37h6.16z"/> <path id="user-14-2" data-name="user-14" class="fill-white-opacity30" d="M73.64 37.2c-7.07-1.63-13.64-3.06-10.46-9.08C72.88 9.8 65.75 0 55.51 0c-10.45 0-17.4 10.17-7.67 28.12 3.28 6.05-3.55 7.48-10.46 9.08-6.12 1.41-6.53 4.41-6.53 9.59v2.55H52.4l1.45-6.17h3.32l1.45 6.17h21.55v-2.55c.01-5.18-.4-8.17-6.53-9.59zm-16.92 3.92h-2.39L52.46 37h6.16z"/> <path class="fill-white-opacity20" d="M55.51 0C45.07 0 38.13 10.15 47.8 28.06L67.25 8.6C65.76 3 61.11 0 55.51 0zM39 36.81l-1.68.39c-.34.08-.66.17-1 .25q.67.33 1.38.63z"/> <path class="fill-white-opacity20" d="M30.87 45l6.91-6.91q-.71-.3-1.38-.63c-4.52 1.31-5.4 3.7-5.53 7.54z"/> <path class="fill-white-opacity20" d="M30.87 45l6.91-6.91q-.71-.3-1.38-.63c-4.52 1.31-5.4 3.7-5.53 7.54z"/> <path class="fill-white-opacity30" d="M80.18 46.79c0-5.18-.41-8.17-6.53-9.59-7.08-1.63-13.65-3.06-10.47-9.08C72.88 9.8 65.75 0 55.51 0c-7.9 0-13.79 5.83-12 16.42l32.93 32.92h3.73c0-.9.01-1.75.01-2.55zM0 49.34h49.33v-1.42c0-3.16-.41-6.82-6.53-8.23s-13.52-5-11.34-9.71c1.41 2.31 5.76 3.65 9.15 1.65-9.29-2.36 3.44-17.87-6.33-27.58l-22 22c.06 2.79-.66 4.86-3.61 5.61 3.39 2 7.75.6 9.15-1.65 2.19 4.7-5.24 8.31-11.34 9.71S0 44.76 0 47.92"/> <path class="fill-white-opacity20" d="M42.81 39.69l-.56-.14 7.05 7.05c-.18-2.8-1.21-5.7-6.49-6.91z"/> <path class="fill-white-opacity30" d="M40.62 31.63c-9.76-2.48 4.8-19.47-8-29a13.42 13.42 0 0 0-8-2.64 13 13 0 0 0-7.94 2.64 13 13 0 0 0-4.81 6.53L35 32.35a7.34 7.34 0 0 0 5.62-.72z"/> </g> </g> </g></svg>