<svg id="icon-20-credit-transfer-white-rsn" xmlns="http://www.w3.org/2000/svg" viewBox="0 0 74.55 51.26"> <defs> <style>.fill-white-opacity40{fill: #fff; opacity: .4;}.fill-white-opacity70{fill: #fff; opacity: .7;}.fill-white-opacity60{fill: #fff; opacity: .6;}.fill-white-opacity20{fill: #fff; opacity: .2;}.fill-rsn-opacity70{fill: #779145; opacity: .7;}</style> </defs> <title>icon-20-credit-transfer-white-rsn</title> <g id="Layer_2" data-name="Layer 2"> <g id="ON_MEDIUM_BG" data-name="ON MEDIUM BG"> <g id="icon-20-credit-transfer-white-rsn"> <path class="fill-white-opacity40" d="M62.14 30.69V20.24H38.75v10.12l.33.33h23.06z"/> <path class="fill-rsn-opacity70" d="M38.75 30.36v.33h.33l-.33-.33z"/> <path class="fill-white-opacity60" d="M63.76 36.08L73.83 26a2.25 2.25 0 0 0 0-3.24l-10.07-10.1s-1.62-1.62-1.62.67v22.08s0 2.29 1.62.67z"/> <path class="fill-white-opacity20" d="M21.13 11.78a13.93 13.93 0 0 1 5.67-1.13 14.36 14.36 0 0 1 5.5 1.1 9.87 9.87 0 0 1 4.33 3.37l8-8a19.43 19.43 0 0 0-8.07-5.33 30 30 0 0 0-20.56 0 26 26 0 0 0-4.13 2l8.43 8.43c.28-.17.55-.31.83-.44z"/> <path class="fill-white-opacity40" d="M16.66 36.31a14.07 14.07 0 0 1-2.85-4.71 17.09 17.09 0 0 1-1-6 16.61 16.61 0 0 1 1-5.94 14.26 14.26 0 0 1 2.88-4.71 13.22 13.22 0 0 1 3.62-2.72l-8.43-8.47a24.07 24.07 0 0 0-4.25 3.15A23.54 23.54 0 0 0 2 15a26.66 26.66 0 0 0-2 10.56A26.66 26.66 0 0 0 2 36a24.33 24.33 0 0 0 5.5 8.14 23.73 23.73 0 0 0 2.89 2.36l8.38-8.38a12.57 12.57 0 0 1-2.11-1.81z"/> <path class="fill-white-opacity70" d="M32.71 39.1a12.94 12.94 0 0 1-6.12 1.37 13.85 13.85 0 0 1-5.59-1.1 13.26 13.26 0 0 1-2.26-1.25l-8.38 8.38a25.12 25.12 0 0 0 5.38 2.9 28.5 28.5 0 0 0 10.41 1.86 26 26 0 0 0 10.93-2.17 23.16 23.16 0 0 0 8-5.87l-8.18-7.7a11.84 11.84 0 0 1-4.19 3.58z"/> </g> </g> </g></svg>