<svg id="icon-13-24hr-support-colored-rsn" xmlns="http://www.w3.org/2000/svg" viewBox="0 0 56.55 50.41"> <defs> <style>.fill-rsn-opacity20{fill: #047dae; opacity: .2}.fill-rsn-opacity40{fill: #047dae; opacity: .4}.fill-rsn-opacity70{fill: #047dae; opacity: .7}</style> </defs> <title>icon-13-24hr-support-colored-rsn</title> <g id="Layer_2" data-name="Layer 2"> <g id="ON_WHITE_BG" data-name="ON WHITE BG"> <g id="icon-13-24hr-support-colored-rsn"> <path class="fill-rsn-opacity20" d="M27.39 0v7.29a2.25 2.25 0 1 1-4.5 0V0A25.2 25.2 0 0 0 8.85 5.9L19.7 16.75a10.12 10.12 0 0 1 15.53 7.6L47.08 12.5A25.3 25.3 0 0 0 27.39 0z"/> <path class="fill-rsn-opacity40" d="M15 25.29a10.12 10.12 0 0 1 4.69-8.54L8.85 5.9A25.25 25.25 0 0 0 0 23h6.75a2.25 2.25 0 1 1 0 4.5H0a25.3 25.3 0 0 0 12.49 19.59l11.75-11.75C19.91 34.74 15 31 15 25.29z"/> <path class="fill-rsn-opacity70" d="M22.9 42.58a2.25 2.25 0 0 1 4.5 0v7.83a25.16 25.16 0 0 0 12-4.22l-8.64-12.47a9.61 9.61 0 0 1-5.62 1.7 9 9 0 0 1-.91-.08L12.49 47.09A25.17 25.17 0 0 0 22.9 50.4z"/> <path class="fill-rsn-opacity20" d="M30.93 25.36s-2.52 0-.74 1.78l1.29 1.29 3.06-3.06z"/> <path class="fill-rsn-opacity40" d="M55.21 25.36h-4.69v-.16a25.18 25.18 0 0 0-3.42-12.71L35.23 24.35v1.01h-.73l-3.06 3.06 9.8 9.78a2.47 2.47 0 0 0 3.56 0l11.14-11.06s1.78-1.78-.73-1.78z"/> </g> </g> </g></svg>