<svg id="ras-logo-rsn" xmlns="http://www.w3.org/2000/svg" viewBox="0 0 240 45"><style>.ras-brand-yellow{fill:#edaa00}.ras-brand-green{fill:#2b5134}.ras-green-faded{fill:#79917d}.ras-brand-yellow-light{fill:#ffdfac}.ras-school-rsn-medium{fill:#047dae}</style><g id="ras-logo-rsn-grp"><path class="ras-brand-yellow" d="M166.3 7.2h.7v33.3h-.7z" id="ras-divider"/><g id="ras-college"><path id="ras-wordmark" class="ras-brand-green" d="M39.3 29.2c-1.4 0-2.3 1.3-2.3 3.4 0 3.1 1.9 4.1 3.8 4.1.7 0 1.3-.1 1.7-.2v.3c-.5.2-1.5.6-3 .6-2.7 0-4.3-1.6-4.3-4.4 0-3.1 2.1-4.1 4.1-4.1 1.2 0 2.5.2 3.1.3l-.1 1.1c-.7-.6-1.9-1.1-3-1.1zm16.2 3.9c0 3.2-2.5 4.3-4.6 4.3-2.6 0-4.2-1.7-4.2-4.3 0-3.2 2.5-4.3 4.6-4.3 2.5.1 4.2 1.7 4.2 4.3zm-1.7.4c0-2.5-1.2-4.2-3-4.2-1.5 0-2.5 1.3-2.5 3.4 0 2.5 1.2 4.2 3 4.2 1.5 0 2.5-1.3 2.5-3.4zm7.9 3.3V29h-1.6v8.2h5v-.7c-.6.1-1.6.3-2.7.3h-.7zm10.1 0V29h-1.6v8.2h5v-.7c-.6.1-1.6.3-2.7.3h-.7zm10.2 0v-3.7h3.4v-.4H82v-3.3h.8c1.1 0 2.1.2 2.7.3V29h-5.2v8.2h5.4v-.7c-.6.1-1.6.3-2.7.3h-1zm10-4.2c0-2.1 1-3.4 2.6-3.4 1.3 0 2.4.7 3 1.1l.1-1.1c-.6-.1-1.8-.3-3.1-.3-1 0-4.3.3-4.3 4.1 0 2.9 1.6 4.5 4.4 4.5 1.5 0 2.5-.4 3-.5v-3.3h-1.1v3.2l-.3.1c-.3.1-.6.1-.8.1-2.1-.2-3.5-2-3.5-4.5zm12 4.2v-3.7h3.4v-.4H104v-3.3h.8c1.1 0 2.1.2 2.7.3V29h-5.2v8.2h5.4v-.7c-.6.1-1.6.3-2.7.3h-1zM43.5 18.1c2.3-.6 3.7-2.1 3.7-4.1 0-3.3-3.8-3.7-7.1-3.7-1.5 0-3.1.1-4.4.2h-.5v15.4h3.4v-14h.2s.8-.2 1.6-.2c2.2 0 3.4 1 3.4 2.9s-1.5 3-4.2 3.1v.8l3.2 7.5h3.9l-3.6-7.7.4-.2zm13.2 3.6h-5.8l-1.2 3.6H49l-.9-2 4.3-11.8h4.3l5.1 13.8h-3.6l-1.5-3.6zm-.6-1.5l-2.4-6.8-2.4 6.8h4.8zm13.3-3c-.2-.1-.4-.2-.7-.3-1.4-.5-3.1-1.2-3.1-2.6 0-.9.8-1.5 2-1.5 1.9 0 3.8 1.2 4.2 1.5l.2-2.4c-.5-.2-2-.6-4.1-.6-2.5 0-5.2 1.1-5.2 4.1 0 2.3 1.6 3.2 3.8 4.2.2.1.4.2.7.3 1.4.6 2.8 1.2 2.8 2.6 0 1.2-.8 1.8-2.2 1.8-2.3 0-4.5-1.8-4.9-2.1l-.2 2.7c.5.2 2.3.9 4.7.9 3.7 0 5.5-1.5 5.5-4.5 0-2.4-1.5-3.2-3.5-4.1zm18.2-5.6l-3.7 9.8-3.3-9.8h-4l-1.5 13.8h2.3l1.2-10.5 3.8 10.5h2.1l4-10.5.8 10.5h3l-1.1-13.8h-3.6zm16.5 5.4v3.4c0 .3 0 .7-.1 1-.2 1.9-1.6 2.6-2.8 2.6-2 0-3-1.2-3-3.6v-8.8h-3.4V21c0 3.1 1.9 4.7 5.9 4.7 3.8 0 6-1.9 6-5v-9h-2.9c.2.5.3 2.2.3 5.3zm11.9.2l-.6-.3c-1.4-.5-3.1-1.2-3.1-2.6 0-.9.8-1.5 2-1.5 1.9 0 3.8 1.2 4.2 1.5l.2-2.4c-.5-.2-2-.6-4.1-.6-2.5 0-5.2 1.1-5.2 4.1 0 2.3 1.6 3.2 3.8 4.2.2.1.4.2.7.3 1.4.6 2.8 1.2 2.8 2.6 0 1.2-.8 1.8-2.2 1.8-2.3 0-4.5-1.8-4.9-2.1l-.2 2.7c.5.2 2.3.9 4.7.9 3.7 0 5.5-1.5 5.5-4.5-.1-2.4-1.6-3.2-3.6-4.1zm12.1 0l-.6-.3c-1.4-.5-3.1-1.2-3.1-2.6 0-.9.8-1.5 2-1.5 1.9 0 3.8 1.2 4.2 1.5l.2-2.4c-.5-.2-2-.6-4.1-.6-2.5 0-5.2 1.1-5.2 4.1 0 2.3 1.6 3.2 3.8 4.2.2.1.4.2.7.3 1.4.6 2.8 1.2 2.8 2.6 0 1.2-.8 1.8-2.2 1.8-2.3 0-4.5-1.8-4.9-2.1l-.2 2.7c.5.2 2.3.9 4.7.9 3.7 0 5.5-1.5 5.5-4.5-.1-2.4-1.6-3.2-3.6-4.1zm9.3 6.7v-5.1h5.5v-1.4h-5.5V13h.9c2 0 4 .4 4.7.6v-2h-9v13.8h9.4v-2c-.8.2-2.7.6-4.7.6h-1.3zm8.3-12.4v13.9h2.5V14.7l6.6 10.7h3.5V11.5h-2.5v10l-6.3-10h-3.8z"/><g id="ras-emblem"><path class="ras-green-faded" d="M0 9.6c-.2 19.6 0 22.1 12.3 30.8-.2-1.2-.7-2.6-1.1-3.8C1.1 29.1 1 26.7 1.1 9.3L0 9.6zm27.2 0c-.2-.1-.5-.2-1-.3.4 17.6 0 19.9-10.2 27.5-.4 1.2-.8 2.6-1 3.7 12.4-8.6 12.6-11.2 12.2-30.9z"/><path class="ras-brand-green" d="M11.3 36.7c-.4-1.2-.8-2.1-.9-2.2 1 .2 1.7.5 3.3.5 1.6 0 2.2-.2 3.2-.5-.1.1-.5 1.1-.9 2.3 10.1-7.6 10.5-9.9 10.2-27.5-1.1-.3-6.1-2.1-12.5-2.1h-.6C7 7.3 2.3 9 1.1 9.3c-.1 17.4 0 19.8 10.2 27.4z"/><path class="ras-brand-yellow" d="M14.8 14.8C12.5 12.2 12.6 9 12.6 9c-1.1 2.4-1.9 4.3-2.2 5-1.1 3-.4 4.3.9 6.4-1.7 1.9-4.3 4.1-3.9 6.7.4 2.4 3.2 4.3 4.3 5.8 0 0-1.1-2.8 1.9-6.5.4-.5.7-1 1-1.4 1.9 3.4 1.1 5.9 1.1 5.9 1.3-1.9 4.5-3.5 5-7.6.5-3.7-3.7-6.1-5.9-8.5z"/><path class="ras-brand-yellow-light" d="M15.1 19.5c-.3-.8-.9-1.5-1.6-3.1 0 0 .1 1.4-1.6 3.4-.2.2-.3.4-.5.6.4.6.9 1.3 1.5 2.1.7.9 1.3 1.7 1.7 2.5 1.1-1.8 1.4-3.1.5-5.5z"/></g></g><path class="ras-school-rsn-medium" d="M175.1 23.5s1.3 1.1 2.8 1.1c.7 0 1.3-.3 1.3-1.2 0-.9-.8-1.2-1.8-1.6-1.2-.4-2.4-.9-2.4-2.4 0-1.6 1.3-2.4 3-2.4 1.4 0 2.3.3 2.3.3l-.1 1.4s-1.1-.8-2.3-.8c-.7 0-1.2.3-1.2.9 0 1.1 1 1.3 2.1 1.7 1.1.4 2.1.9 2.1 2.3 0 2-1.5 2.6-3.1 2.6-1.7 0-2.7-.5-2.7-.5v-1.4zm11-6.5c1.6 0 3 .4 3 .4l-.1 1.5c-.5-.3-1.7-1-3-1-1.5 0-2 1.4-2 2.8 0 2.4 1.3 3.7 3.1 3.7 1.2 0 2-.4 2-.4v.8s-1 .7-2.8.7c-2.3 0-4.1-1.4-4.1-4.4 0-3.1 2.2-4.1 3.9-4.1zm4.6.2h1.7v3.5h3.4v-3.5h1.7v8.1h-1.7v-3.6h-3.4v3.6h-1.7v-8.1zm12.7-.2c2.2 0 3.9 1.4 3.9 4.2 0 3.1-2.2 4.2-4.2 4.2-2.2 0-3.9-1.4-3.9-4.2 0-3 2.2-4.2 4.2-4.2zm2.1 4.7c0-2-.9-3.8-2.6-3.8-1.3 0-2 1.1-2 2.8 0 2 .9 3.8 2.5 3.8 1.5.1 2.1-1.1 2.1-2.8zm7.4-4.7c2.2 0 3.9 1.4 3.9 4.2 0 3.1-2.2 4.2-4.2 4.2-2.2 0-3.9-1.4-3.9-4.2 0-3 2.2-4.2 4.2-4.2zm2.1 4.7c0-2-.9-3.8-2.6-3.8-1.3 0-2 1.1-2 2.8 0 2 .9 3.8 2.5 3.8 1.5.1 2.1-1.1 2.1-2.8zm3.5-4.5h1.7v7.2h.5c1.5 0 2.6-.3 2.6-.3v1.2h-4.8v-8.1zm12.7 1.8c1.7 0 3.1 1 3.1 3.3 0 2.4-1.8 3.3-3.4 3.3-1.7 0-3.1-1-3.1-3.3-.1-2.5 1.7-3.3 3.4-3.3zm0 5.6c1 0 1.4-.9 1.4-2.1 0-2-1.1-2.7-1.9-2.7-1 0-1.4.9-1.4 2.1 0 2 1.1 2.7 1.9 2.7zm8.7-7c-.2-.1-.9-.2-1.2-.2-.6 0-.8.4-.8 1.3v.4h1.5v.8H238v5.5h-1.6v-5.5h-1v-.8h1v-.6c.1-1.5 1-2 2.5-2 .5 0 1 .1 1.2.1l-.2 1zm-64.6 11.5h1.9c1.3 1.9 2.5 3.9 3.8 5.8v-5.8h1.4v8.1h-1.7c-1.3-2-2.6-4-4-6v6h-1.3v-8.1zm9 0h1.7v5.2c0 1.5.7 2.1 1.8 2.1s1.6-.8 1.6-2v-2c0-2.4-.2-3.3-.2-3.3h1.6v5.3c0 2-1.4 3-3.3 3-2.4 0-3.3-1.1-3.3-2.8v-5.5zm8.6 0s1.4-.2 2.5-.2c2.5 0 3.7.5 3.7 2.2 0 1.2-.9 2.1-2.2 2.4 1 1.2 1.9 2.4 2.9 3.6h-2l-2.4-3.5v-.7h.3c1.3 0 1.8-.8 1.8-1.7 0-1.1-.8-1.6-1.9-1.6-.5 0-.9.1-.9.1V37H193v-7.9zm7.9 6.3s1.3 1.1 2.8 1.1c.7 0 1.3-.3 1.3-1.2 0-.9-.8-1.2-1.8-1.6-1.2-.4-2.4-.9-2.4-2.4 0-1.6 1.3-2.4 3-2.4 1.4 0 2.3.3 2.3.3l-.1 1.4s-1.1-.8-2.3-.8c-.7 0-1.2.3-1.2.9 0 1.1 1 1.3 2.1 1.7 1.1.4 2.1.9 2.1 2.3 0 2-1.5 2.6-3.1 2.6-1.7 0-2.7-.5-2.7-.5-.1-.4 0-.9 0-1.4zm7.5-6.3h1.7v8.1h-1.7v-8.1zm3.7 0h1.9c1.3 1.9 2.5 3.9 3.8 5.8v-5.8h1.4v8.1h-1.7c-1.3-2-2.6-4-4-6v6H212v-8.1zm12.7-.2c1.7 0 3 .4 3 .4l-.1 1.5c-.5-.3-1.7-1-3-1-1.6 0-2.2 1.3-2.2 2.9 0 2.3 1.3 3.7 3.1 3.7.5 0 .8-.1.8-.1v-3h1.4v3.5s-1.1.6-2.9.6c-2.4 0-4.2-1.4-4.2-4.4.1-3.1 2.3-4.1 4.1-4.1z" id="ras-nursing"/></g></svg>